<?xml version="1.0" encoding="UTF-8" standalone="no"?>
<svg
   xmlns:dc="http://purl.org/dc/elements/1.1/"
   xmlns:cc="http://creativecommons.org/ns#"
   xmlns:rdf="http://www.w3.org/1999/02/22-rdf-syntax-ns#"
   xmlns:svg="http://www.w3.org/2000/svg"
   xmlns="http://www.w3.org/2000/svg"
   xmlns:sodipodi="http://sodipodi.sourceforge.net/DTD/sodipodi-0.dtd"
   xmlns:inkscape="http://www.inkscape.org/namespaces/inkscape"
   width="67.798241mm"
   height="33.000248mm"
   viewBox="0 0 67.798241 33.000248"
   version="1.1"
   id="svg3620"
   sodipodi:docname="basic-background.svg"
   inkscape:version="1.0.2 (e86c870879, 2021-01-15)">
  <sodipodi:namedview
     pagecolor="#ffffff"
     bordercolor="#666666"
     borderopacity="1"
     objecttolerance="10"
     gridtolerance="10"
     guidetolerance="10"
     inkscape:pageopacity="0"
     inkscape:pageshadow="2"
     inkscape:window-width="1920"
     inkscape:window-height="1047"
     id="namedview153"
     showgrid="false"
     inkscape:zoom="4.6595973"
     inkscape:cx="128.12266"
     inkscape:cy="62.362673"
     inkscape:window-x="0"
     inkscape:window-y="33"
     inkscape:window-maximized="1"
     inkscape:current-layer="svg3620" />
  <defs
     id="defs3614" />
  <metadata
     id="metadata3617">
    <rdf:RDF>
      <cc:Work
         rdf:about="">
        <dc:format>image/svg+xml</dc:format>
        <dc:type
           rdf:resource="http://purl.org/dc/dcmitype/StillImage" />
        <dc:title />
      </cc:Work>
    </rdf:RDF>
  </metadata>
  <rect
     style="color:#000000;overflow:visible;fill:#ffffff;fill-rule:evenodd;stroke:none;stroke-width:0.549981;stroke-linecap:round;paint-order:markers fill stroke"
     id="rect4645"
     width="31.835726"
     height="31.836071"
     x="35.380436"
     y="0.5820868" />
  <path
     d="M 41.635362,8.192027 H 41.457915 41.28082 V 7.5736076 6.9551881 H 40.606309 39.931445 V 7.5736076 8.192027 H 39.755056 39.578668 V 6.8539409 5.5158548 h 0.176388 0.176389 v 0.5750278 0.5753805 h 0.674864 0.674511 V 6.0908826 5.5158548 h 0.177095 0.177447 v 1.3380861 z"
     style="fill:#001982;fill-opacity:1;fill-rule:nonzero;stroke:none;stroke-width:0.352778"
     id="path296" />
  <path
     d="m 42.61499,6.855848 h 0.316794 0.317148 c 0.09419,0 0.1778,-0.011289 0.249766,-0.033514 0.07232,-0.022225 0.133703,-0.055386 0.18415,-0.099836 0.05009,-0.04445 0.08784,-0.099131 0.113242,-0.1633361 0.02505,-0.064206 0.03775,-0.1382889 0.03775,-0.2226028 0,-0.079728 -0.0127,-0.1513416 -0.03775,-0.2155472 C 43.77069,6.0571589 43.73294,6.0014202 43.682848,5.9534425 43.632398,5.9058175 43.572782,5.8694815 43.50399,5.8447869 43.4352,5.8197399 43.356882,5.8063339 43.26904,5.8045699 H 42.942015 42.61499 v 0.5256389 z m 0,0.2885722 v 0.523875 0.523875 H 42.438601 42.261859 V 6.8540841 5.5156453 h 0.493537 0.493536 c 0.146402,0 0.277283,0.018697 0.391936,0.056444 0.114653,0.037394 0.213783,0.093133 0.296686,0.1679222 0.0829,0.074789 0.144992,0.161925 0.186619,0.2607028 0.04127,0.099131 0.06209,0.2099028 0.06209,0.333375 0,0.1298222 -0.02046,0.244475 -0.06103,0.3446639 -0.04057,0.099836 -0.101248,0.1848555 -0.182386,0.2550583 -0.08114,0.070203 -0.179917,0.1227667 -0.295981,0.1580444 -0.116417,0.035278 -0.250119,0.052564 -0.401108,0.052564 h -0.315384 z"
     style="fill:#001982;fill-opacity:1;fill-rule:nonzero;stroke:none;stroke-width:0.352778"
     id="path308" />
  <path
     d="m 46.605083,7.342787 c -0.01658,0.1414639 -0.05115,0.2670528 -0.103011,0.3760611 -0.05221,0.1093611 -0.122414,0.2024944 -0.210608,0.2790472 -0.08784,0.076906 -0.190148,0.1347611 -0.306917,0.1732139 -0.11677,0.038453 -0.248003,0.057503 -0.394053,0.057503 -0.158044,0 -0.300567,-0.028222 -0.427214,-0.084667 C 45.036633,8.0871481 44.925508,8.0021287 44.830258,7.888887 44.735361,7.7756453 44.663747,7.6430009 44.616122,7.4913064 44.568497,7.339612 44.544508,7.1688676 44.544508,6.9790731 V 6.8503092 6.7215453 c 0,-0.1241777 0.01129,-0.2409472 0.03351,-0.3503083 0.02223,-0.1093611 0.05574,-0.2113139 0.100189,-0.3055055 0.0441,-0.094545 0.09772,-0.1781528 0.160514,-0.2504722 0.06315,-0.072319 0.135114,-0.1337028 0.216605,-0.1845028 0.08149,-0.050447 0.169334,-0.088547 0.263878,-0.1135945 0.09454,-0.0254 0.195086,-0.0381 0.302331,-0.0381 0.142169,0 0.270227,0.019756 0.384175,0.05962 0.113947,0.039511 0.213783,0.099131 0.299508,0.1785055 0.08608,0.079375 0.153458,0.1739195 0.203553,0.2836334 0.05009,0.1097138 0.08184,0.23495 0.09631,0.3750027 h -0.177447 -0.177447 c -0.01517,-0.1065389 -0.03951,-0.1989666 -0.07267,-0.276225 -0.03351,-0.077611 -0.07585,-0.1400527 -0.127,-0.1883833 -0.05115,-0.047625 -0.112536,-0.083608 -0.183797,-0.1075972 -0.07161,-0.023989 -0.153105,-0.035983 -0.24518,-0.035983 -0.112537,0 -0.213078,0.020814 -0.301625,0.062442 -0.08819,0.041981 -0.164395,0.1044222 -0.2286,0.1876778 -0.06385,0.083255 -0.111831,0.1845028 -0.143934,0.3033889 -0.0321,0.1185333 -0.04798,0.2547055 -0.04798,0.4088694 v 0.1294695 0.1298222 c 0,0.1453444 0.01517,0.2755194 0.04516,0.3912305 0.03034,0.1157111 0.07585,0.2162528 0.136525,0.3019778 0.06068,0.086078 0.133703,0.1502833 0.218369,0.1933222 0.08502,0.043039 0.182034,0.064558 0.291042,0.064558 0.09807,0 0.184503,-0.011289 0.259645,-0.033514 0.07514,-0.022225 0.138994,-0.055739 0.191205,-0.099836 0.05256,-0.04445 0.09631,-0.1051277 0.130881,-0.1827388 0.03493,-0.077258 0.06068,-0.17145 0.07796,-0.2815167 h 0.177447 z"
     style="fill:#001982;fill-opacity:1;fill-rule:nonzero;stroke:none;stroke-width:0.352778"
     id="path312" />
  <path
     d="m 47.101018,8.421617 h -0.14605 -0.145697 l 0.558447,-1.4530916 0.5588,-1.4527389 h 0.144992 0.145344 l -0.557742,1.4527389 z"
     style="fill:#001982;fill-opacity:1;fill-rule:nonzero;stroke:none;stroke-width:0.352778"
     id="path316" />
  <path
     d="m 50.150253,6.955049 h -0.579967 -0.579614 v 0.4741333 0.4744861 h 0.673806 0.673806 V 8.0479545 8.1918879 H 49.488089 48.637542 V 6.8538018 5.5157157 h 0.841022 0.841022 v 0.1446389 0.1442861 h -0.664633 -0.664281 v 0.4307416 0.4310945 h 0.579614 0.579967 v 0.1442861 z"
     style="fill:#001982;fill-opacity:1;fill-rule:nonzero;stroke:none;stroke-width:0.352778"
     id="path320" />
  <path
     d="m 51.390831,6.929225 0.220486,-0.3630083 0.220486,-0.3630084 h 0.198614 0.198614 L 51.90377,6.6949806 51.578509,7.1864 51.914,7.6894611 52.249845,8.1921694 h -0.19685 -0.19685 L 51.626487,7.8196361 51.396475,7.4478083 51.166817,7.8196361 50.936806,8.1921694 H 50.739603 50.542048 L 50.877187,7.6894611 51.212678,7.1864 50.887417,6.6949806 50.562156,6.2032083 h 0.196497 0.19685 l 0.217664,0.3630084 z"
     style="fill:#001982;fill-opacity:1;fill-rule:nonzero;stroke:none;stroke-width:0.352778"
     id="path324" />
  <path
     d="m 53.25311,7.932777 c 0.05292,0 0.105128,-0.00706 0.155575,-0.020814 0.05045,-0.013758 0.09984,-0.034219 0.147461,-0.061736 0.04798,-0.027517 0.0889,-0.059267 0.123472,-0.09525 0.03493,-0.035983 0.0628,-0.075847 0.08431,-0.1199444 V 7.431127 7.2272215 h -0.13335 -0.13335 c -0.208139,0 -0.364419,0.030339 -0.468489,0.091369 -0.104069,0.061031 -0.15628,0.1524 -0.15628,0.2744611 0,0.053269 0.0092,0.1005417 0.02681,0.1421694 0.01764,0.041628 0.0441,0.077611 0.07937,0.1072445 0.03563,0.030339 0.0762,0.052917 0.122061,0.067733 0.04586,0.015169 0.09666,0.022578 0.1524,0.022578 m 0.564092,0.2592917 c -0.0099,-0.019403 -0.01905,-0.046919 -0.02681,-0.081845 -0.0081,-0.034925 -0.01517,-0.077611 -0.02117,-0.1277055 -0.07902,0.082197 -0.165453,0.1435805 -0.259997,0.1848555 -0.09455,0.040922 -0.196498,0.061383 -0.306211,0.061383 -0.09772,0 -0.186973,-0.013758 -0.267406,-0.041628 -0.08043,-0.027517 -0.152047,-0.069144 -0.214489,-0.1248834 -0.06315,-0.055386 -0.110067,-0.1181805 -0.141464,-0.1883833 -0.03175,-0.070556 -0.04727,-0.1481667 -0.04727,-0.2331861 0,-0.1037167 0.01976,-0.1954389 0.05927,-0.2758722 0.03916,-0.080433 0.09842,-0.1495778 0.177094,-0.2067278 0.07867,-0.05715 0.173567,-0.1001889 0.283986,-0.1287639 0.110772,-0.028928 0.23742,-0.043392 0.379942,-0.043392 h 0.165805 0.165453 v -0.077964 -0.077964 c 0,-0.059267 -0.0088,-0.1125361 -0.02646,-0.1601611 -0.01799,-0.04692 -0.0448,-0.088547 -0.08043,-0.123825 -0.03528,-0.034925 -0.07937,-0.061383 -0.131939,-0.079022 -0.05221,-0.017639 -0.112889,-0.026458 -0.182034,-0.026458 -0.06068,0 -0.116416,0.00776 -0.167569,0.022931 -0.0508,0.015169 -0.09666,0.0381 -0.137583,0.068792 -0.04128,0.030692 -0.07197,0.064558 -0.09243,0.1016 -0.02046,0.037042 -0.03069,0.077258 -0.03069,0.1206499 h -0.171097 -0.170745 c 0,-0.049389 0.0088,-0.098425 0.02646,-0.1460499 0.01764,-0.048331 0.04374,-0.09525 0.07937,-0.1414639 0.03528,-0.046214 0.07655,-0.087489 0.12453,-0.1241778 0.04763,-0.036689 0.1016,-0.068439 0.161925,-0.09525 0.06032,-0.027164 0.123825,-0.047272 0.190148,-0.061031 0.06632,-0.013406 0.135466,-0.020108 0.207786,-0.020108 0.114652,0 0.216605,0.014464 0.306564,0.043039 0.0896,0.028575 0.166863,0.071614 0.232127,0.1291167 0.06491,0.05715 0.1143,0.1252361 0.147814,0.2042583 0.03387,0.078669 0.05186,0.168275 0.05433,0.2688166 v 0.4579056 0.4575528 c 0,0.091369 0.0056,0.1732138 0.01729,0.2458861 0.01164,0.072319 0.02893,0.1358194 0.05221,0.1894416 v 0.014817 0.014817 h -0.178153 z"
     style="fill:#001982;fill-opacity:1;fill-rule:nonzero;stroke:none;stroke-width:0.352778"
     id="path328" />
  <path
     d="m 55.794874,7.664417 c 0,-0.045861 -0.0085,-0.086783 -0.02611,-0.1224139 -0.01729,-0.03563 -0.04304,-0.066322 -0.07761,-0.091722 -0.03492,-0.0254 -0.0822,-0.049036 -0.142522,-0.070908 -0.06032,-0.021872 -0.133703,-0.041981 -0.219428,-0.060325 -0.08643,-0.018697 -0.163689,-0.038806 -0.232127,-0.060678 -0.06809,-0.022225 -0.127706,-0.045861 -0.178153,-0.071614 -0.05045,-0.025753 -0.09454,-0.053975 -0.131939,-0.084667 -0.03704,-0.030692 -0.06809,-0.0635 -0.09243,-0.099131 -0.02434,-0.035631 -0.04233,-0.074436 -0.05433,-0.1167695 -0.01235,-0.042333 -0.01834,-0.088194 -0.01834,-0.1368777 0,-0.081492 0.01729,-0.1566334 0.05186,-0.225425 0.03422,-0.069144 0.08608,-0.1315861 0.155222,-0.1880306 0.06879,-0.056444 0.147462,-0.098778 0.235303,-0.127 0.08819,-0.028222 0.185914,-0.042333 0.292806,-0.042333 0.112889,0 0.215194,0.014464 0.306564,0.043744 0.09137,0.028928 0.172155,0.072672 0.242005,0.1308806 0.07056,0.058208 0.122767,0.1245305 0.158397,0.1989666 0.03493,0.074436 0.05256,0.1569862 0.05256,0.2480028 h -0.170744 -0.171097 c 0,-0.046919 -0.0099,-0.090311 -0.02963,-0.1305278 -0.01975,-0.039864 -0.04939,-0.076906 -0.08925,-0.1104194 -0.03951,-0.033867 -0.08396,-0.059267 -0.133703,-0.0762 -0.05009,-0.016933 -0.104775,-0.0254 -0.1651,-0.0254 -0.06174,0 -0.11677,0.00706 -0.1651,0.020814 -0.04868,0.013406 -0.09031,0.033514 -0.125236,0.060325 -0.03493,0.027164 -0.06103,0.058208 -0.07832,0.093486 -0.01729,0.035278 -0.02611,0.074436 -0.02611,0.1181806 0,0.040922 0.0081,0.076906 0.02434,0.10795 0.01623,0.031044 0.04057,0.056797 0.07303,0.077611 0.03246,0.020814 0.07796,0.041275 0.136525,0.061031 0.05891,0.019756 0.130528,0.039511 0.215547,0.058561 0.08467,0.018697 0.161573,0.039864 0.230011,0.062442 0.06879,0.022578 0.12947,0.047272 0.182387,0.073378 0.05256,0.026458 0.09843,0.055386 0.137583,0.087136 0.03916,0.03175 0.07161,0.065969 0.09666,0.1033639 0.0254,0.036689 0.04445,0.077964 0.05715,0.1231194 0.0127,0.045156 0.01905,0.094544 0.01905,0.1478139 0,0.0889 -0.01764,0.1689805 -0.05327,0.2398889 -0.03528,0.071261 -0.08855,0.1337027 -0.159456,0.187325 -0.07126,0.053622 -0.153106,0.093839 -0.245181,0.12065 -0.09208,0.026811 -0.195086,0.040217 -0.307975,0.040217 -0.07973,0 -0.154869,-0.00706 -0.225425,-0.021167 -0.0702,-0.014111 -0.136172,-0.035278 -0.197908,-0.0635 -0.06103,-0.028222 -0.115711,-0.062089 -0.163689,-0.1012473 -0.04762,-0.039511 -0.0889,-0.084314 -0.123472,-0.1347611 -0.03492,-0.0508 -0.06068,-0.1033638 -0.07796,-0.1580444 -0.01729,-0.054681 -0.02575,-0.1114778 -0.02575,-0.1700389 h 0.169686 0.169687 c 0.0032,0.056797 0.01623,0.10795 0.03916,0.1531056 0.02293,0.045156 0.05539,0.084314 0.09807,0.1178277 0.04269,0.033514 0.09208,0.058561 0.148167,0.075142 0.05609,0.016933 0.119239,0.025047 0.189441,0.025047 0.06421,0 0.122062,-0.00635 0.17392,-0.019403 0.05151,-0.013053 0.09666,-0.032456 0.135467,-0.058561 0.0388,-0.026105 0.06809,-0.056444 0.08749,-0.091369 0.0194,-0.034572 0.02928,-0.073731 0.02928,-0.117475"
     style="fill:#001982;fill-opacity:1;fill-rule:nonzero;stroke:none;stroke-width:0.352778"
     id="path332" />
  <path
     d="m 57.375494,7.951367 c 0.06068,0 0.117475,-0.00917 0.170392,-0.027517 0.05327,-0.018344 0.101952,-0.045861 0.147461,-0.08255 0.04515,-0.037042 0.08043,-0.078317 0.10548,-0.1245305 0.02505,-0.045861 0.03986,-0.096308 0.0448,-0.1516945 h 0.16122 0.160866 c -0.0032,0.05715 -0.01446,0.1128889 -0.03387,0.1668639 -0.01976,0.054328 -0.04762,0.1072445 -0.08396,0.15875 -0.03598,0.051506 -0.07796,0.097367 -0.126294,0.1386417 -0.04833,0.040922 -0.102658,0.076906 -0.162983,0.1072444 -0.06032,0.030692 -0.122767,0.053975 -0.186267,0.069145 -0.06385,0.015522 -0.129469,0.02293 -0.19685,0.02293 -0.135467,0 -0.257175,-0.022578 -0.364419,-0.067733 C 56.90312,8.115761 56.809281,8.0480281 56.7292,7.957717 56.64912,7.867406 56.589147,7.7601614 56.549283,7.6366892 56.509423,7.513217 56.489313,7.3728115 56.489313,7.2161781 v -0.028575 -0.028575 c 0,-0.097014 0.0092,-0.1883833 0.02681,-0.2744611 0.01764,-0.086078 0.04445,-0.1668639 0.08008,-0.2420055 0.03563,-0.075495 0.07902,-0.1421695 0.129469,-0.2007306 0.05115,-0.058561 0.110067,-0.1086555 0.176389,-0.1502833 0.06668,-0.041628 0.138995,-0.073025 0.217311,-0.093839 0.07867,-0.020814 0.163336,-0.031397 0.254,-0.031397 0.111831,0 0.214136,0.016933 0.306211,0.050447 0.09278,0.033514 0.176037,0.083256 0.249767,0.1502833 0.07408,0.066675 0.130528,0.1432278 0.170039,0.2300111 0.03951,0.086783 0.06174,0.1834445 0.06632,0.2896306 H 58.00485 57.84363 C 57.83873,6.8224776 57.82423,6.7639169 57.79989,6.711353 57.7759,6.658436 57.74168,6.611517 57.697937,6.5698892 c -0.04375,-0.041275 -0.09278,-0.072319 -0.146756,-0.093133 -0.05398,-0.020461 -0.113241,-0.031044 -0.1778,-0.031044 -0.08608,0 -0.162983,0.015522 -0.229658,0.046919 -0.06703,0.031045 -0.124178,0.077611 -0.171803,0.1400528 -0.04727,0.062089 -0.08326,0.1379361 -0.106539,0.2278944 -0.02399,0.089958 -0.03563,0.193675 -0.03563,0.31115 v 0.032103 0.032456 c 0,0.1146527 0.01164,0.2159 0.03528,0.3040944 0.02364,0.088194 0.05891,0.1633361 0.106186,0.225425 0.04692,0.061383 0.104422,0.10795 0.171802,0.1389944 0.06738,0.031045 0.144992,0.046567 0.232481,0.046567"
     style="fill:#001982;fill-opacity:1;fill-rule:nonzero;stroke:none;stroke-width:0.352778"
     id="path336" />
  <path
     d="m 59.211385,7.932777 c 0.05327,0 0.105481,-0.00706 0.155575,-0.020814 0.0508,-0.013758 0.100189,-0.034219 0.147461,-0.061736 0.04833,-0.027517 0.08925,-0.059267 0.124178,-0.09525 0.03457,-0.035983 0.06244,-0.075847 0.08361,-0.1199444 V 7.431127 7.2272215 H 59.58921 59.45586 c -0.208139,0 -0.364772,0.030339 -0.468842,0.091369 -0.104069,0.061031 -0.155927,0.1524 -0.155927,0.2744611 0,0.053269 0.0088,0.1005417 0.02646,0.1421694 0.01764,0.041628 0.04445,0.077611 0.08008,0.1072445 0.03528,0.030339 0.07585,0.052917 0.121709,0.067733 0.04551,0.015169 0.09631,0.022578 0.152047,0.022578 m 0.564444,0.2592917 c -0.0099,-0.019403 -0.0187,-0.046919 -0.02681,-0.081845 -0.0078,-0.034925 -0.01517,-0.077611 -0.02081,-0.1277055 -0.07937,0.082197 -0.166158,0.1435805 -0.26035,0.1848555 -0.09454,0.040922 -0.196497,0.061383 -0.306211,0.061383 -0.09807,0 -0.187325,-0.013758 -0.267405,-0.041628 -0.08043,-0.027517 -0.152047,-0.069144 -0.214842,-0.1248834 -0.06279,-0.055386 -0.109714,-0.1181805 -0.141111,-0.1883833 -0.0314,-0.070556 -0.04727,-0.1481667 -0.04727,-0.2331861 0,-0.1037167 0.01975,-0.1954389 0.05927,-0.2758722 0.03916,-0.080433 0.09807,-0.1495778 0.177095,-0.2067278 0.07867,-0.05715 0.173214,-0.1001889 0.283986,-0.1287639 0.110419,-0.028928 0.237067,-0.043392 0.380294,-0.043392 h 0.1651 0.165453 v -0.077964 -0.077964 c 0,-0.059267 -0.0085,-0.1125361 -0.02646,-0.1601611 -0.01764,-0.04692 -0.04445,-0.088547 -0.08008,-0.123825 -0.03528,-0.034925 -0.07937,-0.061383 -0.131939,-0.079022 -0.05221,-0.017639 -0.113241,-0.026458 -0.182386,-0.026458 -0.06068,0 -0.116416,0.00776 -0.167216,0.022931 -0.05045,0.015169 -0.09666,0.0381 -0.137231,0.068792 -0.04163,0.030692 -0.07232,0.064558 -0.09313,0.1016 -0.02046,0.037042 -0.03069,0.077258 -0.03069,0.1206499 h -0.170744 -0.171098 c 0,-0.049389 0.0092,-0.098425 0.02646,-0.1460499 0.01764,-0.048331 0.0441,-0.09525 0.07937,-0.1414639 0.03528,-0.046214 0.07691,-0.087489 0.124883,-0.1241778 0.04762,-0.036689 0.101953,-0.068439 0.161925,-0.09525 0.05997,-0.027164 0.123472,-0.047272 0.190147,-0.061031 0.06597,-0.013406 0.135114,-0.020108 0.207434,-0.020108 0.115005,0 0.216958,0.014464 0.306916,0.043039 0.08961,0.028575 0.166864,0.071614 0.232128,0.1291167 0.06456,0.05715 0.1143,0.1252361 0.147814,0.2042583 0.03351,0.078669 0.05151,0.168275 0.05398,0.2688166 v 0.4579056 0.4575528 c 0,0.091369 0.006,0.1732138 0.01764,0.2458861 0.01164,0.072319 0.02893,0.1358194 0.05186,0.1894416 v 0.014817 0.014817 H 59.95365 Z"
     style="fill:#001982;fill-opacity:1;fill-rule:nonzero;stroke:none;stroke-width:0.352778"
     id="path340" />
  <path
     d="M 60.964938,8.192027 H 60.794899 60.624507 V 6.7805631 5.3687465 h 0.170392 0.170039 v 1.4118166 z"
     style="fill:#001982;fill-opacity:1;fill-rule:nonzero;stroke:none;stroke-width:0.352778"
     id="path344" />
  <path
     d="m 62.291982,6.445708 c -0.06844,0 -0.131586,0.0127 -0.189089,0.037394 -0.0575,0.025047 -0.110067,0.062794 -0.15628,0.1125362 -0.04657,0.050094 -0.08467,0.1100666 -0.113242,0.1799166 -0.02893,0.070203 -0.04868,0.1502833 -0.05997,0.2402417 h 0.498122 0.498122 V 7.0027441 6.9896913 C 62.764704,6.9036135 62.750593,6.8270608 62.72731,6.760033 62.704379,6.6930052 62.671571,6.6358552 62.629943,6.5882302 62.588315,6.540958 62.539279,6.5053274 62.482835,6.4816913 62.426743,6.4577024 62.36289,6.445708 62.291982,6.445708 m 0.04198,1.7829388 c -0.134762,0 -0.25647,-0.021872 -0.366537,-0.066322 -0.109361,-0.04445 -0.206727,-0.1107722 -0.291041,-0.1993194 -0.08467,-0.088547 -0.148167,-0.1919111 -0.1905,-0.3100917 -0.04198,-0.1185333 -0.06315,-0.2518833 -0.06315,-0.40005 v -0.031044 -0.031397 c 0,-0.098778 0.0092,-0.1922639 0.02822,-0.2804584 0.0187,-0.087842 0.04692,-0.1707444 0.08467,-0.2483555 0.03775,-0.077258 0.08255,-0.1464028 0.135114,-0.2070806 0.05292,-0.060678 0.113242,-0.1128888 0.180975,-0.1566333 0.06773,-0.043744 0.138642,-0.076553 0.211667,-0.098425 0.07338,-0.021872 0.149225,-0.033161 0.2286,-0.033161 0.129117,0 0.244122,0.02152 0.344664,0.064206 0.100542,0.042333 0.186267,0.1061861 0.25788,0.1915583 0.07161,0.085019 0.125237,0.1887361 0.161573,0.3104444 0.03598,0.1220611 0.05362,0.2624667 0.05362,0.4212167 v 0.070556 0.070556 h -0.673453 -0.673453 c 0.0025,0.098425 0.01799,0.1869722 0.04657,0.2659944 0.02858,0.079375 0.0702,0.1488722 0.124883,0.2091972 0.05503,0.060325 0.117123,0.1058334 0.187325,0.1358195 0.0695,0.030339 0.146756,0.045508 0.23107,0.045508 0.05997,0 0.115358,-0.00635 0.166158,-0.018344 0.0508,-0.012347 0.09701,-0.030692 0.138642,-0.055033 0.04163,-0.024694 0.08079,-0.053269 0.117122,-0.085725 0.03669,-0.032456 0.07056,-0.068792 0.1016,-0.1093611 l 0.104069,0.080786 0.103717,0.080786 c -0.08326,0.1280583 -0.187325,0.2243666 -0.312561,0.2882194 -0.124883,0.063853 -0.270581,0.095956 -0.437444,0.095956"
     style="fill:#001982;fill-opacity:1;fill-rule:nonzero;stroke:none;stroke-width:0.352778"
     id="path348" />
  <path
     d="m 41.546991,12.193477 c -0.01658,0.141464 -0.05115,0.267053 -0.103011,0.376061 -0.05221,0.109361 -0.122414,0.202495 -0.210256,0.279047 -0.08819,0.07691 -0.1905,0.134761 -0.307269,0.173214 -0.11677,0.03845 -0.248003,0.0575 -0.3937,0.0575 -0.158397,0 -0.30092,-0.02822 -0.427214,-0.08467 -0.127,-0.0568 -0.237772,-0.141816 -0.332669,-0.255058 -0.0956,-0.113242 -0.167217,-0.245886 -0.214842,-0.397581 -0.04763,-0.151694 -0.07126,-0.322438 -0.07126,-0.512233 v -0.128764 -0.128764 c 0,-0.124177 0.01094,-0.240947 0.03316,-0.350308 0.02222,-0.109361 0.05574,-0.211314 0.100189,-0.305506 0.04445,-0.09454 0.09772,-0.178152 0.160866,-0.250472 0.06315,-0.07232 0.135467,-0.133703 0.216959,-0.184503 0.08149,-0.05045 0.169333,-0.08855 0.263525,-0.113594 0.09454,-0.0254 0.195086,-0.0381 0.301978,-0.0381 0.142522,0 0.27058,0.01976 0.384527,0.05962 0.113948,0.03951 0.213784,0.09913 0.299509,0.178506 0.08572,0.07938 0.153458,0.173919 0.203552,0.283633 0.0501,0.109714 0.08185,0.23495 0.09596,0.375003 h -0.177094 -0.177448 c -0.01552,-0.106539 -0.03986,-0.198967 -0.07303,-0.276225 -0.03316,-0.07761 -0.07514,-0.140053 -0.126294,-0.188383 -0.05115,-0.04763 -0.112889,-0.08361 -0.18415,-0.107597 -0.07161,-0.02399 -0.153458,-0.03598 -0.245533,-0.03598 -0.112537,0 -0.213078,0.02081 -0.301625,0.06244 -0.08819,0.04198 -0.164395,0.104422 -0.2286,0.187678 -0.06385,0.08325 -0.111831,0.184502 -0.143934,0.303389 -0.0321,0.118533 -0.04798,0.254705 -0.04798,0.408869 v 0.129469 0.129823 c 0,0.145344 0.01517,0.275519 0.04551,0.39123 0.03034,0.115711 0.07585,0.216253 0.136878,0.301978 0.06068,0.08608 0.13335,0.150283 0.218016,0.193322 0.08502,0.04304 0.181681,0.06456 0.291042,0.06456 0.09772,0 0.18415,-0.01129 0.259644,-0.03351 0.07514,-0.02223 0.138995,-0.05574 0.191559,-0.09984 0.05221,-0.04445 0.09595,-0.105128 0.130527,-0.182739 0.03493,-0.07726 0.06068,-0.17145 0.07796,-0.281517 h 0.177448 z"
     style="fill:#001982;fill-opacity:1;fill-rule:nonzero;stroke:none;stroke-width:0.352778"
     id="path352" />
  <path
     d="m 42.758112,11.296407 c -0.06844,0 -0.131586,0.0127 -0.189442,0.03739 -0.0575,0.02505 -0.109361,0.0628 -0.155927,0.112537 -0.04692,0.05009 -0.08467,0.110066 -0.113242,0.179916 -0.02893,0.0702 -0.04868,0.150284 -0.05962,0.240242 h 0.498123 0.498122 v -0.01305 -0.01305 c -0.0049,-0.08608 -0.01905,-0.16263 -0.04233,-0.229658 -0.02364,-0.06703 -0.05574,-0.124178 -0.09772,-0.171803 -0.04163,-0.04727 -0.09066,-0.0829 -0.146755,-0.106539 -0.05644,-0.02399 -0.119945,-0.03598 -0.191206,-0.03598 m 0.04269,1.782939 c -0.135114,0 -0.257175,-0.02187 -0.366889,-0.06632 -0.109714,-0.04445 -0.206728,-0.110773 -0.291041,-0.19932 -0.08467,-0.08855 -0.14852,-0.191911 -0.1905,-0.310091 -0.04233,-0.118534 -0.0635,-0.251884 -0.0635,-0.40005 v -0.03104 -0.0314 c 0,-0.09878 0.0095,-0.192264 0.02822,-0.280458 0.0187,-0.08784 0.04727,-0.170745 0.08467,-0.248356 0.03775,-0.07726 0.0829,-0.146403 0.135467,-0.207081 0.05292,-0.06068 0.112889,-0.112888 0.180622,-0.156633 0.06773,-0.04374 0.138642,-0.07655 0.211667,-0.09843 0.07338,-0.02187 0.149578,-0.03316 0.2286,-0.03316 0.129469,0 0.244122,0.02152 0.344664,0.06421 0.100542,0.04233 0.186619,0.106186 0.258233,0.191558 0.07161,0.08502 0.125236,0.188736 0.16122,0.310444 0.03598,0.122061 0.05362,0.262467 0.05362,0.421217 v 0.07056 0.07056 h -0.6731 -0.673806 c 0.0025,0.09843 0.01799,0.186972 0.04657,0.265995 0.02858,0.07938 0.07056,0.148872 0.125236,0.209197 0.05503,0.06033 0.117122,0.105833 0.186972,0.135819 0.0695,0.03034 0.146756,0.04551 0.23107,0.04551 0.05997,0 0.115711,-0.0064 0.166511,-0.01835 0.0508,-0.01235 0.09701,-0.03069 0.138642,-0.05503 0.04163,-0.0247 0.08079,-0.05327 0.117122,-0.08573 0.03669,-0.03246 0.0702,-0.06879 0.1016,-0.109361 l 0.103716,0.08079 0.103717,0.08079 c -0.08326,0.128058 -0.187325,0.224367 -0.312208,0.288219 -0.124884,0.06385 -0.270581,0.09596 -0.437092,0.09596"
     style="fill:#001982;fill-opacity:1;fill-rule:nonzero;stroke:none;stroke-width:0.352778"
     id="path356" />
  <path
     d="m 44.291002,11.053867 0.0056,0.124883 0.0053,0.125236 c 0.07585,-0.0956 0.163336,-0.167216 0.262467,-0.214841 0.09948,-0.04798 0.210608,-0.07197 0.333022,-0.07197 0.209903,0 0.3683,0.05927 0.474133,0.1778 0.106186,0.118533 0.160161,0.296333 0.161925,0.5334 V 12.3856 13.042825 H 45.36341 45.193372 v -0.658283 -0.657931 c -7.06e-4,-0.07161 -0.0092,-0.134055 -0.02575,-0.186972 -0.01623,-0.05292 -0.04057,-0.09666 -0.07267,-0.131233 -0.0321,-0.03422 -0.07338,-0.05997 -0.123473,-0.07691 -0.04974,-0.01693 -0.109008,-0.02575 -0.176741,-0.02575 -0.05539,0 -0.107245,0.0074 -0.155575,0.02223 -0.04833,0.01446 -0.09313,0.03669 -0.134761,0.06632 -0.04163,0.02928 -0.07902,0.06315 -0.111478,0.1016 -0.03246,0.0388 -0.06032,0.08184 -0.08361,0.129822 v 0.708378 0.70873 h -0.170038 -0.170039 v -0.99448 -0.994481 h 0.160866 z"
     style="fill:#001982;fill-opacity:1;fill-rule:nonzero;stroke:none;stroke-width:0.352778"
     id="path360" />
  <path
     d="m 46.507575,10.572577 v 0.240594 0.240595 h 0.185561 0.185914 v 0.131586 0.131586 h -0.185914 -0.185561 v 0.617361 0.617361 c 0,0.03986 0.0042,0.07479 0.01235,0.104775 0.0085,0.02999 0.02081,0.05468 0.03739,0.07479 0.01623,0.01976 0.03881,0.03493 0.06703,0.0448 0.02822,0.0099 0.06209,0.01517 0.101953,0.01517 0.0194,0 0.04269,-0.0021 0.0695,-0.006 0.02716,-0.0035 0.05786,-0.0092 0.09243,-0.01658 v 0.13723 0.137231 c -0.0448,0.01199 -0.0889,0.02117 -0.132644,0.02716 -0.04339,0.0063 -0.08643,0.0092 -0.128764,0.0092 -0.07585,0 -0.142522,-0.01129 -0.199672,-0.03457 -0.0575,-0.02293 -0.105128,-0.05715 -0.143934,-0.103364 -0.03881,-0.04586 -0.06773,-0.1016 -0.08678,-0.166864 -0.0194,-0.06491 -0.02893,-0.140053 -0.02893,-0.22472 V 11.933263 11.31696 h -0.181328 -0.180622 v -0.131586 -0.131586 h 0.180622 0.181328 v -0.240595 -0.240594 h 0.170039 z"
     style="fill:#001982;fill-opacity:1;fill-rule:nonzero;stroke:none;stroke-width:0.352778"
     id="path364" />
  <path
     d="m 48.23721,11.358917 c -0.02575,-0.0042 -0.05256,-0.0074 -0.08079,-0.0095 -0.02787,-0.0021 -0.0568,-0.0035 -0.08678,-0.0035 -0.111478,0 -0.204964,0.02399 -0.280812,0.07161 -0.07549,0.04727 -0.13335,0.118533 -0.173213,0.213431 v 0.705908 0.705908 H 47.445576 47.27589 v -0.99448 -0.994481 h 0.165452 0.1651 l 0.0028,0.115006 0.0028,0.115358 c 0.05539,-0.0889 0.123119,-0.155575 0.202141,-0.200378 0.07902,-0.04445 0.169687,-0.06668 0.271992,-0.06668 0.03316,0 0.06244,0.0025 0.08749,0.0067 0.02505,0.0042 0.04621,0.01058 0.0635,0.01905 v 0.158045 z"
     style="fill:#001982;fill-opacity:1;fill-rule:nonzero;stroke:none;stroke-width:0.352778"
     id="path368" />
  <path
     d="m 49.297589,11.296407 c -0.06879,0 -0.131939,0.0127 -0.189442,0.03739 -0.0575,0.02505 -0.109714,0.0628 -0.15628,0.112537 -0.04657,0.05009 -0.08431,0.110066 -0.113242,0.179916 -0.02858,0.0702 -0.04833,0.150284 -0.05962,0.240242 h 0.498122 0.498122 v -0.01305 -0.01305 c -0.0049,-0.08608 -0.01905,-0.16263 -0.04233,-0.229658 -0.02328,-0.06703 -0.05574,-0.124178 -0.09737,-0.171803 -0.04163,-0.04727 -0.09066,-0.0829 -0.146755,-0.106539 -0.05645,-0.02399 -0.120298,-0.03598 -0.191206,-0.03598 m 0.04233,1.782939 c -0.134761,0 -0.257175,-0.02187 -0.366536,-0.06632 -0.109714,-0.04445 -0.206728,-0.110773 -0.291394,-0.19932 -0.08467,-0.08855 -0.148167,-0.191911 -0.1905,-0.310091 -0.04233,-0.118534 -0.06315,-0.251884 -0.06315,-0.40005 v -0.03104 -0.0314 c 0,-0.09878 0.0092,-0.192264 0.02822,-0.280458 0.0187,-0.08784 0.04727,-0.170745 0.08431,-0.248356 0.03775,-0.07726 0.08326,-0.146403 0.135819,-0.207081 0.05256,-0.06068 0.112889,-0.112888 0.18027,-0.156633 0.06809,-0.04374 0.138641,-0.07655 0.212019,-0.09843 0.07338,-0.02187 0.149578,-0.03316 0.2286,-0.03316 0.129117,0 0.243769,0.02152 0.344664,0.06421 0.100189,0.04233 0.186267,0.106186 0.258233,0.191558 0.07161,0.08502 0.125236,0.188736 0.16122,0.310444 0.03563,0.122061 0.05362,0.262467 0.05362,0.421217 v 0.07056 0.07056 H 49.44186 48.768407 c 0.0025,0.09843 0.01799,0.186972 0.04657,0.265995 0.02858,0.07938 0.07056,0.148872 0.125236,0.209197 0.05468,0.06033 0.11677,0.105833 0.18662,0.135819 0.0695,0.03034 0.146755,0.04551 0.231422,0.04551 0.05997,0 0.115711,-0.0064 0.166511,-0.01835 0.0508,-0.01235 0.09701,-0.03069 0.138642,-0.05503 0.04163,-0.0247 0.08079,-0.05327 0.117122,-0.08573 0.03634,-0.03246 0.0702,-0.06879 0.101247,-0.109361 l 0.104069,0.08079 0.103717,0.08079 c -0.08326,0.128058 -0.187678,0.224367 -0.312561,0.288219 -0.124883,0.06385 -0.270581,0.09596 -0.437092,0.09596"
     style="fill:#001982;fill-opacity:1;fill-rule:nonzero;stroke:none;stroke-width:0.352778"
     id="path372" />
  <path
     d="m 51.692633,12.070327 c 0,0.110067 0.0127,0.20955 0.0381,0.29845 0.0254,0.08855 0.06385,0.166158 0.115006,0.232833 0.05115,0.06667 0.111125,0.11677 0.179563,0.150284 0.06844,0.03351 0.145345,0.05009 0.23107,0.05009 0.08643,0 0.164042,-0.01693 0.23248,-0.0508 0.06879,-0.03387 0.128764,-0.08467 0.179564,-0.152047 0.0508,-0.06809 0.0889,-0.149225 0.1143,-0.244122 0.02575,-0.0949 0.03845,-0.2032 0.03845,-0.324909 0,-0.109008 -0.01305,-0.207786 -0.03916,-0.296333 -0.02575,-0.08855 -0.06491,-0.166511 -0.116417,-0.234244 -0.05186,-0.06773 -0.112183,-0.118534 -0.180622,-0.1524 -0.06914,-0.03387 -0.14605,-0.0508 -0.232481,-0.0508 -0.08361,0 -0.159455,0.01693 -0.227189,0.05045 -0.06773,0.03316 -0.127,0.08361 -0.178505,0.150283 -0.05151,0.06668 -0.08996,0.147814 -0.115711,0.243417 -0.02575,0.0956 -0.03845,0.205316 -0.03845,0.329847 m -0.341842,-0.04022 c 0,-0.09737 0.0095,-0.189794 0.02857,-0.277636 0.01905,-0.08749 0.04763,-0.170391 0.08573,-0.248003 0.03845,-0.07796 0.08431,-0.146755 0.137584,-0.206727 0.05327,-0.06033 0.113947,-0.111478 0.182386,-0.153459 0.06844,-0.04233 0.141464,-0.07408 0.219428,-0.0956 0.07796,-0.02117 0.160513,-0.0314 0.248002,-0.0314 0.13582,0 0.258234,0.02328 0.367595,0.0702 0.109361,0.04692 0.206022,0.117122 0.28963,0.210961 0.08396,0.09384 0.146403,0.202847 0.188384,0.327731 0.04163,0.12453 0.06244,0.264583 0.06244,0.420158 v 0.01199 0.01199 c 0,0.09666 -0.0092,0.188736 -0.02752,0.275519 -0.01835,0.08678 -0.04621,0.168628 -0.08326,0.245534 -0.03704,0.07691 -0.0822,0.145344 -0.135114,0.205316 -0.05292,0.05997 -0.113947,0.111478 -0.183091,0.154164 -0.06879,0.04304 -0.142875,0.07514 -0.22225,0.09666 -0.07902,0.02117 -0.163337,0.03175 -0.252942,0.03175 -0.134761,0 -0.25647,-0.02328 -0.365831,-0.0702 -0.109361,-0.04692 -0.205316,-0.117123 -0.288925,-0.210961 -0.08396,-0.09384 -0.146402,-0.202495 -0.188383,-0.326673 -0.04163,-0.123825 -0.06244,-0.262819 -0.06244,-0.417336 v -0.01199 z"
     style="fill:#001982;fill-opacity:1;fill-rule:nonzero;stroke:none;stroke-width:0.352778"
     id="path376" />
  <path
     d="m 53.754866,13.042727 v -0.862894 -0.862895 h -0.157339 -0.157339 v -0.131586 -0.131586 h 0.157339 0.157339 v -0.101953 -0.1016 c 0,-0.106892 0.01411,-0.201436 0.04269,-0.283633 0.02822,-0.0822 0.07091,-0.152753 0.127706,-0.210961 0.05715,-0.05821 0.125941,-0.101953 0.206375,-0.130881 0.08079,-0.02893 0.173214,-0.04339 0.277283,-0.04339 0.03916,0 0.07832,0.0025 0.117122,0.0074 0.03881,0.0053 0.07761,0.0127 0.116417,0.02328 l -0.0092,0.136878 -0.0092,0.137231 c -0.02858,-0.0053 -0.05856,-0.0095 -0.08925,-0.01235 -0.03069,-0.0028 -0.06209,-0.0042 -0.0949,-0.0042 -0.05468,0 -0.103716,0.0081 -0.146402,0.02399 -0.04269,0.01623 -0.07902,0.04057 -0.109009,0.07267 -0.02999,0.03246 -0.05256,0.07161 -0.06738,0.117828 -0.01517,0.04657 -0.02293,0.09984 -0.02293,0.159808 v 0.105128 0.104775 h 0.212372 0.212725 v 0.131586 0.131586 H 54.30661 54.094238 v 0.862895 0.862894 h -0.169686 z"
     style="fill:#001982;fill-opacity:1;fill-rule:nonzero;stroke:none;stroke-width:0.352778"
     id="path380" />
  <path
     d="m 41.091202,16.656437 h -0.579967 -0.579614 v 0.474133 0.474486 h 0.673453 0.673806 v 0.144287 0.143933 H 40.428685 39.578491 V 16.55519 15.217104 h 0.841022 0.841022 v 0.144639 0.144286 h -0.664633 -0.664281 v 0.430741 0.431095 h 0.579614 0.579967 v 0.144286 z"
     style="fill:#001982;fill-opacity:1;fill-rule:nonzero;stroke:none;stroke-width:0.352778"
     id="path384" />
  <path
     d="m 42.33178,16.630617 0.220486,-0.363008 0.220486,-0.363009 h 0.198614 0.198261 l -0.324908,0.491773 -0.325261,0.491419 0.335139,0.503061 0.335491,0.502708 h -0.196497 -0.19685 l -0.229658,-0.372533 -0.229659,-0.371828 -0.229658,0.371828 -0.230011,0.372533 h -0.197556 -0.197555 l 0.335139,-0.502708 0.335491,-0.503061 -0.324908,-0.491419 -0.325261,-0.491773 h 0.196497 0.19685 l 0.217664,0.363009 z"
     style="fill:#001982;fill-opacity:1;fill-rule:nonzero;stroke:none;stroke-width:0.352778"
     id="path388" />
  <path
     d="m 44.291002,17.652757 c 0.06068,0 0.117475,-0.0092 0.170392,-0.02752 0.05292,-0.01834 0.101952,-0.04586 0.147461,-0.08255 0.04551,-0.03704 0.08079,-0.07832 0.105833,-0.12453 0.02505,-0.04586 0.04022,-0.09631 0.04516,-0.151695 h 0.160866 0.160514 c -0.0032,0.05715 -0.01446,0.112889 -0.03387,0.166864 -0.01976,0.05433 -0.04763,0.107245 -0.08361,0.15875 -0.03634,0.05151 -0.07832,0.09737 -0.126647,0.138642 -0.04833,0.04092 -0.102658,0.07691 -0.162983,0.107244 -0.05997,0.03069 -0.122414,0.05398 -0.186267,0.06914 -0.06385,0.01552 -0.129469,0.02293 -0.19685,0.02293 -0.135467,0 -0.257175,-0.02258 -0.364772,-0.06773 -0.107597,-0.04516 -0.201084,-0.112889 -0.281517,-0.2032 -0.07973,-0.09031 -0.1397,-0.197556 -0.179564,-0.321028 -0.04022,-0.123472 -0.05997,-0.263878 -0.05997,-0.420511 v -0.02858 -0.02858 c 0,-0.09701 0.0088,-0.188383 0.02646,-0.274461 0.01799,-0.08608 0.04445,-0.166864 0.08008,-0.242006 0.03563,-0.07549 0.07867,-0.142169 0.129822,-0.20073 0.0508,-0.05856 0.109714,-0.108656 0.176389,-0.150283 0.06632,-0.04163 0.138994,-0.07303 0.217311,-0.09384 0.07867,-0.02081 0.163336,-0.0314 0.254,-0.0314 0.111478,0 0.213431,0.01693 0.306211,0.05045 0.09243,0.03351 0.176036,0.08326 0.249767,0.150283 0.07373,0.06668 0.130175,0.143228 0.169686,0.230011 0.03951,0.08678 0.06138,0.183445 0.06632,0.289631 H 44.92071 44.759844 c -0.0049,-0.06421 -0.01976,-0.122767 -0.0441,-0.175331 -0.02434,-0.05292 -0.05821,-0.09984 -0.101952,-0.141464 -0.0441,-0.04127 -0.09278,-0.07232 -0.146756,-0.09313 -0.05433,-0.02046 -0.113594,-0.03105 -0.1778,-0.03105 -0.08643,0 -0.162983,0.01552 -0.230011,0.04692 -0.06703,0.03104 -0.124178,0.07761 -0.171803,0.140053 -0.04727,0.06209 -0.0829,0.137936 -0.106539,0.227894 -0.02399,0.08996 -0.03598,0.193675 -0.03598,0.31115 v 0.0321 0.03245 c 0,0.114653 0.01199,0.2159 0.03563,0.304095 0.02364,0.08819 0.05891,0.163336 0.106186,0.225425 0.04727,0.06138 0.104422,0.10795 0.171802,0.138994 0.06738,0.03104 0.144639,0.04657 0.232481,0.04657"
     style="fill:#001982;fill-opacity:1;fill-rule:nonzero;stroke:none;stroke-width:0.352778"
     id="path392" />
  <path
     d="m 46.246449,16.147097 c -0.06844,0 -0.131586,0.0127 -0.189089,0.03739 -0.0575,0.02505 -0.109714,0.06279 -0.15628,0.112537 -0.04621,0.05009 -0.08396,0.110066 -0.112889,0.179916 -0.02893,0.0702 -0.04868,0.150284 -0.05962,0.240242 h 0.49777 0.498122 v -0.01305 -0.01305 c -0.0049,-0.08608 -0.01905,-0.16263 -0.04233,-0.229658 -0.02328,-0.06703 -0.05539,-0.124178 -0.09737,-0.171803 -0.04163,-0.04727 -0.09066,-0.0829 -0.147108,-0.106539 -0.05644,-0.02399 -0.119945,-0.03598 -0.191206,-0.03598 m 0.04233,1.782939 c -0.134761,0 -0.256822,-0.02187 -0.366536,-0.06632 -0.109714,-0.04445 -0.20708,-0.110773 -0.291747,-0.19932 -0.08431,-0.08855 -0.147814,-0.191911 -0.189794,-0.310091 -0.04233,-0.118534 -0.0635,-0.251884 -0.0635,-0.40005 v -0.03105 -0.0314 c 0,-0.09878 0.0092,-0.192264 0.02822,-0.280458 0.0187,-0.08784 0.04727,-0.170745 0.08502,-0.248356 0.0374,-0.07726 0.08255,-0.146403 0.135467,-0.207081 0.05256,-0.06068 0.112889,-0.112888 0.180622,-0.156633 0.06773,-0.04374 0.138289,-0.07655 0.211667,-0.09843 0.07303,-0.02187 0.149225,-0.03316 0.228247,-0.03316 0.129469,0 0.244475,0.02152 0.345017,0.06421 0.100189,0.04233 0.186266,0.106186 0.25788,0.191558 0.07161,0.08502 0.125589,0.188736 0.161572,0.310444 0.03598,0.122061 0.05362,0.262467 0.05362,0.421217 v 0.07056 0.07055 h -0.673453 -0.673806 c 0.0021,0.09842 0.01764,0.186972 0.04657,0.265995 0.02857,0.07937 0.07056,0.148872 0.125236,0.209197 0.05503,0.06032 0.117122,0.105833 0.186972,0.135819 0.0695,0.03034 0.146756,0.04551 0.23107,0.04551 0.05997,0 0.115711,-0.0064 0.166511,-0.01835 0.0508,-0.01235 0.09666,-0.03069 0.138642,-0.05503 0.04163,-0.02469 0.08079,-0.05327 0.117122,-0.08573 0.03634,-0.03246 0.0702,-0.06879 0.101953,-0.109361 l 0.103716,0.08079 0.10407,0.08079 c -0.08361,0.128058 -0.187678,0.224367 -0.312914,0.288219 -0.124884,0.06385 -0.270934,0.09596 -0.437445,0.09596"
     style="fill:#001982;fill-opacity:1;fill-rule:nonzero;stroke:none;stroke-width:0.352778"
     id="path396" />
  <path
     d="m 47.827247,17.893417 h -0.170039 -0.170392 v -1.411464 -1.411816 h 0.170392 0.170039 v 1.411816 z"
     style="fill:#001982;fill-opacity:1;fill-rule:nonzero;stroke:none;stroke-width:0.352778"
     id="path400" />
  <path
     d="M 48.740518,17.893417 H 48.570479 48.40044 v -1.411464 -1.411816 h 0.170039 0.170039 v 1.411816 z"
     style="fill:#001982;fill-opacity:1;fill-rule:nonzero;stroke:none;stroke-width:0.352778"
     id="path404" />
  <path
     d="m 50.067597,16.147097 c -0.06844,0 -0.131939,0.0127 -0.189442,0.03739 -0.0575,0.02505 -0.109714,0.06279 -0.15628,0.112537 -0.04657,0.05009 -0.08431,0.110066 -0.112889,0.179916 -0.02893,0.0702 -0.04868,0.150284 -0.05997,0.240242 h 0.498122 0.498122 v -0.01305 -0.01305 c -0.0046,-0.08608 -0.0187,-0.16263 -0.04233,-0.229658 -0.02328,-0.06703 -0.05574,-0.124178 -0.09737,-0.171803 -0.04163,-0.04727 -0.09066,-0.0829 -0.146755,-0.106539 -0.05645,-0.02399 -0.120298,-0.03598 -0.191206,-0.03598 m 0.04233,1.782939 c -0.134761,0 -0.256822,-0.02187 -0.366536,-0.06632 -0.109714,-0.04445 -0.206728,-0.110773 -0.291394,-0.19932 -0.08467,-0.08855 -0.148167,-0.191911 -0.1905,-0.310091 -0.04198,-0.118534 -0.06315,-0.251884 -0.06315,-0.40005 v -0.03105 -0.0314 c 0,-0.09878 0.0092,-0.192264 0.02822,-0.280458 0.0187,-0.08784 0.04692,-0.170745 0.08467,-0.248356 0.03775,-0.07726 0.0829,-0.146403 0.135467,-0.207081 0.05292,-0.06068 0.112889,-0.112888 0.180622,-0.156633 0.06773,-0.04374 0.138289,-0.07655 0.211667,-0.09843 0.07338,-0.02187 0.149578,-0.03316 0.2286,-0.03316 0.129117,0 0.244122,0.02152 0.344664,0.06421 0.100189,0.04233 0.186267,0.106186 0.258233,0.191558 0.07161,0.08502 0.125236,0.188736 0.16122,0.310444 0.03598,0.122061 0.05362,0.262467 0.05362,0.421217 v 0.07056 0.07055 H 50.211883 49.53843 c 0.0025,0.09842 0.01799,0.186972 0.04657,0.265995 0.02857,0.07937 0.07056,0.148872 0.125236,0.209197 0.05468,0.06032 0.117122,0.105833 0.18662,0.135819 0.06985,0.03034 0.146755,0.04551 0.231422,0.04551 0.05997,0 0.115711,-0.0064 0.166511,-0.01835 0.0508,-0.01235 0.09701,-0.03069 0.138642,-0.05503 0.04163,-0.02469 0.08079,-0.05327 0.117122,-0.08573 0.03669,-0.03246 0.0702,-0.06879 0.101247,-0.109361 l 0.104069,0.08079 0.103717,0.08079 c -0.08326,0.128058 -0.187325,0.224367 -0.312561,0.288219 -0.124883,0.06385 -0.270581,0.09596 -0.437092,0.09596"
     style="fill:#001982;fill-opacity:1;fill-rule:nonzero;stroke:none;stroke-width:0.352778"
     id="path408" />
  <path
     d="m 51.600487,15.904567 0.0056,0.124883 0.0053,0.125236 c 0.07585,-0.0956 0.163336,-0.167216 0.262467,-0.214841 0.09948,-0.04798 0.210255,-0.07197 0.333022,-0.07197 0.209903,0 0.3683,0.05927 0.474133,0.1778 0.106186,0.118533 0.160161,0.296333 0.161925,0.5334 v 0.657225 0.657225 h -0.170039 -0.170038 v -0.658283 -0.657931 c -7.06e-4,-0.07161 -0.0092,-0.134055 -0.02575,-0.186972 -0.01623,-0.05292 -0.04057,-0.09666 -0.07303,-0.131233 -0.03175,-0.03422 -0.07302,-0.05997 -0.12312,-0.07691 -0.05009,-0.01693 -0.109008,-0.02575 -0.176741,-0.02575 -0.05539,0 -0.107245,0.0074 -0.155575,0.02222 -0.04833,0.01446 -0.09349,0.03669 -0.134761,0.06632 -0.04163,0.02928 -0.07902,0.06315 -0.111478,0.1016 -0.03246,0.0388 -0.06033,0.08184 -0.08361,0.129822 v 0.708378 0.70873 h -0.170038 -0.170039 v -0.99448 -0.994481 h 0.160866 z"
     style="fill:#001982;fill-opacity:1;fill-rule:nonzero;stroke:none;stroke-width:0.352778"
     id="path412" />
  <path
     d="m 54.153469,17.652757 c 0.06068,0 0.117475,-0.0092 0.170392,-0.02752 0.05292,-0.01834 0.101952,-0.04586 0.147108,-0.08255 0.04551,-0.03704 0.08079,-0.07832 0.105833,-0.12453 0.02505,-0.04586 0.04022,-0.09631 0.04516,-0.151695 h 0.160867 0.160866 c -0.0032,0.05715 -0.01446,0.112889 -0.03422,0.166864 -0.01976,0.05433 -0.04763,0.107245 -0.08361,0.15875 -0.03598,0.05151 -0.07832,0.09737 -0.126647,0.138642 -0.04798,0.04092 -0.102658,0.07691 -0.162983,0.107244 -0.05997,0.03069 -0.122414,0.05398 -0.185914,0.06914 -0.06421,0.01552 -0.129469,0.02293 -0.19685,0.02293 -0.135467,0 -0.257175,-0.02258 -0.364772,-0.06773 -0.10795,-0.04516 -0.201789,-0.112889 -0.28187,-0.2032 -0.07973,-0.09031 -0.1397,-0.197556 -0.179564,-0.321028 -0.03986,-0.123472 -0.05962,-0.263878 -0.05962,-0.420511 v -0.02858 -0.02858 c 0,-0.09701 0.0088,-0.188383 0.02646,-0.274461 0.01799,-0.08608 0.04445,-0.166864 0.08008,-0.242006 0.03528,-0.07549 0.07867,-0.142169 0.129469,-0.20073 0.05115,-0.05856 0.109714,-0.108656 0.176036,-0.150283 0.06703,-0.04163 0.139348,-0.07303 0.218017,-0.09384 0.07867,-0.02081 0.162983,-0.0314 0.253647,-0.0314 0.111478,0 0.213784,0.01693 0.306211,0.05045 0.09278,0.03351 0.176037,0.08326 0.25012,0.150283 0.07373,0.06668 0.130175,0.143228 0.169686,0.230011 0.03951,0.08678 0.06138,0.183445 0.06632,0.289631 h -0.160866 -0.160867 c -0.0049,-0.06421 -0.01976,-0.122767 -0.04375,-0.175331 -0.02434,-0.05292 -0.05856,-0.09984 -0.102658,-0.141464 -0.04339,-0.04127 -0.09243,-0.07232 -0.146403,-0.09313 -0.05433,-0.02046 -0.113594,-0.03105 -0.1778,-0.03105 -0.08643,0 -0.162983,0.01552 -0.230011,0.04692 -0.06667,0.03104 -0.123825,0.07761 -0.17145,0.140053 -0.04762,0.06209 -0.08326,0.137936 -0.106891,0.227894 -0.02364,0.08996 -0.03563,0.193675 -0.03563,0.31115 v 0.0321 0.03245 c 0,0.114653 0.01199,0.2159 0.03563,0.304095 0.02364,0.08819 0.05891,0.163336 0.105833,0.225425 0.04727,0.06138 0.104775,0.10795 0.172155,0.138994 0.06738,0.03104 0.144639,0.04657 0.232481,0.04657"
     style="fill:#001982;fill-opacity:1;fill-rule:nonzero;stroke:none;stroke-width:0.352778"
     id="path416" />
  <path
     d="m 56.109093,16.147097 c -0.06844,0 -0.131939,0.0127 -0.189442,0.03739 -0.0575,0.02505 -0.109714,0.06279 -0.15628,0.112537 -0.04657,0.05009 -0.08431,0.110066 -0.113242,0.179916 -0.02857,0.0702 -0.04833,0.150284 -0.05962,0.240242 h 0.497769 0.498475 v -0.01305 -0.01305 c -0.0053,-0.08608 -0.01905,-0.16263 -0.04269,-0.229658 -0.02293,-0.06703 -0.05539,-0.124178 -0.09701,-0.171803 -0.04163,-0.04727 -0.09102,-0.0829 -0.147108,-0.106539 -0.05644,-0.02399 -0.120297,-0.03598 -0.190853,-0.03598 m 0.04198,1.782939 c -0.134762,0 -0.256823,-0.02187 -0.366537,-0.06632 -0.109713,-0.04445 -0.206727,-0.110773 -0.291394,-0.19932 -0.08467,-0.08855 -0.148167,-0.191911 -0.190147,-0.310091 -0.04233,-0.118534 -0.06315,-0.251884 -0.06315,-0.40005 v -0.03105 -0.0314 c 0,-0.09878 0.0092,-0.192264 0.02787,-0.280458 0.0187,-0.08784 0.04727,-0.170745 0.08467,-0.248356 0.03775,-0.07726 0.0829,-0.146403 0.135466,-0.207081 0.05256,-0.06068 0.112889,-0.112888 0.180623,-0.156633 0.06809,-0.04374 0.138641,-0.07655 0.212019,-0.09843 0.07338,-0.02187 0.149225,-0.03316 0.2286,-0.03316 0.129117,0 0.243769,0.02152 0.344664,0.06421 0.100189,0.04233 0.186267,0.106186 0.25788,0.191558 0.07161,0.08502 0.125237,0.188736 0.16122,0.310444 0.03598,0.122061 0.05362,0.262467 0.05362,0.421217 v 0.07056 0.07055 h -0.673453 -0.673452 c 0.0025,0.09842 0.01799,0.186972 0.04657,0.265995 0.02858,0.07937 0.07056,0.148872 0.125236,0.209197 0.05503,0.06032 0.117123,0.105833 0.186973,0.135819 0.06985,0.03034 0.146755,0.04551 0.231422,0.04551 0.05962,0 0.115005,-0.0064 0.166158,-0.01835 0.05045,-0.01235 0.09701,-0.03069 0.138289,-0.05503 0.04163,-0.02469 0.08114,-0.05327 0.117475,-0.08573 0.03669,-0.03246 0.0702,-0.06879 0.1016,-0.109361 l 0.103717,0.08079 0.104069,0.08079 c -0.08326,0.128058 -0.187678,0.224367 -0.312914,0.288219 -0.124883,0.06385 -0.27058,0.09596 -0.437091,0.09596"
     style="fill:#001982;fill-opacity:1;fill-rule:nonzero;stroke:none;stroke-width:0.352778"
     id="path420" />
  <path
     d="m 58.621576,17.893417 h -0.170039 -0.170392 v -0.994481 -0.99448 h 0.170392 0.170039 v 0.99448 z m -0.367594,-2.516364 c 0,-0.02752 0.0042,-0.05292 0.01235,-0.0762 0.0085,-0.02328 0.02081,-0.04445 0.03775,-0.06315 0.01658,-0.01905 0.03775,-0.03351 0.06279,-0.04269 0.0254,-0.0099 0.05433,-0.01446 0.08678,-0.01446 0.03316,0 0.06244,0.0046 0.08749,0.01446 0.0254,0.0092 0.04621,0.02364 0.0635,0.04269 0.01729,0.0187 0.02999,0.03986 0.0388,0.06315 0.0085,0.02328 0.01305,0.04868 0.01305,0.0762 0,0.02752 -0.0046,0.05292 -0.01305,0.0762 -0.0088,0.02258 -0.02152,0.04339 -0.0388,0.06174 -0.01729,0.01835 -0.0381,0.03246 -0.0635,0.04128 -0.02505,0.0095 -0.05433,0.01411 -0.08749,0.01411 -0.03246,0 -0.06138,-0.0046 -0.08678,-0.01411 -0.02505,-0.0088 -0.04621,-0.02293 -0.06279,-0.04128 -0.01693,-0.01834 -0.02928,-0.03916 -0.03775,-0.06174 -0.0081,-0.02328 -0.01235,-0.04868 -0.01235,-0.0762"
     style="fill:#001982;fill-opacity:1;fill-rule:nonzero;stroke:none;stroke-width:0.352778"
     id="path424" />
  <path
     d="m 59.48701,15.904567 0.0056,0.124883 0.0053,0.125236 c 0.0762,-0.0956 0.163689,-0.167216 0.26282,-0.214841 0.09948,-0.04798 0.210255,-0.07197 0.332669,-0.07197 0.209903,0 0.3683,0.05927 0.474133,0.1778 0.105834,0.118533 0.159809,0.296333 0.161573,0.5334 V 17.2363 17.893525 H 60.559418 60.38938 v -0.658283 -0.657931 c -3.53e-4,-0.07161 -0.0092,-0.134055 -0.0254,-0.186972 -0.01658,-0.05292 -0.04057,-0.09666 -0.07303,-0.131233 -0.0321,-0.03422 -0.07338,-0.05997 -0.12312,-0.07691 -0.05045,-0.01693 -0.109361,-0.02575 -0.177447,-0.02575 -0.05503,0 -0.106892,0.0074 -0.155222,0.02222 -0.04833,0.01446 -0.09349,0.03669 -0.135114,0.06632 -0.04198,0.02928 -0.07867,0.06315 -0.111125,0.1016 -0.03281,0.0388 -0.06032,0.08184 -0.08361,0.129822 v 0.708378 0.70873 h -0.170038 -0.170039 v -0.99448 -0.994481 h 0.160866 z"
     style="fill:#001982;fill-opacity:1;fill-rule:nonzero;stroke:none;stroke-width:0.352778"
     id="path428" />
  <path
     d="m 39.931586,21.407927 h 0.316794 0.317148 c 0.09419,0 0.1778,-0.01129 0.250119,-0.03351 0.07197,-0.02222 0.13335,-0.05539 0.183445,-0.09984 0.05045,-0.04445 0.08784,-0.09913 0.113241,-0.163336 0.02505,-0.06421 0.03775,-0.138289 0.03775,-0.222603 0,-0.07973 -0.0127,-0.151342 -0.03775,-0.215547 -0.0254,-0.06385 -0.06279,-0.119592 -0.113241,-0.16757 -0.05009,-0.04763 -0.109714,-0.08396 -0.178506,-0.108655 -0.06879,-0.02505 -0.147108,-0.03845 -0.234597,-0.04022 h -0.327378 -0.327025 v 0.525639 z m 0,0.288572 v 0.523875 0.523875 h -0.176389 -0.176389 v -1.338086 -1.338439 h 0.493184 0.493536 c 0.146402,0 0.27693,0.0187 0.391583,0.05645 0.114653,0.03739 0.213783,0.09313 0.296686,0.167922 0.0829,0.07479 0.145345,0.161925 0.186972,0.260703 0.04163,0.09913 0.06244,0.209902 0.06244,0.333375 0,0.129822 -0.02046,0.244475 -0.06103,0.344664 -0.04057,0.09984 -0.1016,0.184855 -0.182738,0.255058 -0.08149,0.0702 -0.18027,0.122767 -0.296334,0.158044 -0.116064,0.03528 -0.250119,0.05256 -0.401461,0.05256 h -0.31503 z"
     style="fill:#001982;fill-opacity:1;fill-rule:nonzero;stroke:none;stroke-width:0.352778"
     id="path432" />
  <path
     d="m 42.658911,20.997787 c -0.06844,0 -0.131939,0.0127 -0.189442,0.03739 -0.0575,0.02505 -0.109714,0.06279 -0.155927,0.112537 -0.04692,0.05009 -0.08467,0.110066 -0.113242,0.179916 -0.02893,0.0702 -0.04868,0.150284 -0.05997,0.240242 h 0.498122 0.498122 v -0.01305 -0.01305 c -0.0046,-0.08608 -0.0187,-0.16263 -0.04233,-0.229658 -0.02328,-0.06703 -0.05574,-0.124178 -0.09737,-0.171803 -0.04163,-0.04727 -0.09066,-0.0829 -0.146755,-0.106539 -0.05644,-0.02399 -0.120298,-0.03598 -0.191206,-0.03598 m 0.04233,1.782939 c -0.134761,0 -0.256822,-0.02187 -0.366536,-0.06632 -0.109714,-0.04445 -0.206728,-0.110773 -0.291394,-0.19932 -0.08467,-0.08855 -0.148167,-0.191911 -0.1905,-0.310091 -0.04198,-0.118534 -0.06315,-0.251884 -0.06315,-0.40005 V 21.7739 21.7425 c 0,-0.09878 0.0092,-0.192264 0.02822,-0.280458 0.0187,-0.08784 0.04727,-0.170745 0.08467,-0.248356 0.03775,-0.07726 0.0829,-0.146403 0.135467,-0.207081 0.05292,-0.06068 0.112889,-0.112888 0.180622,-0.156633 0.06773,-0.04374 0.138289,-0.07655 0.211667,-0.09842 0.07338,-0.02187 0.149578,-0.03316 0.2286,-0.03316 0.129117,0 0.244122,0.02152 0.344664,0.06421 0.100189,0.04233 0.186267,0.106186 0.258233,0.191558 0.07161,0.08502 0.125236,0.188736 0.16122,0.310444 0.03598,0.122061 0.05362,0.262467 0.05362,0.421217 v 0.07056 0.07055 H 42.803193 42.12974 c 0.0025,0.09842 0.01799,0.186972 0.04657,0.265995 0.02858,0.07937 0.07056,0.148872 0.125236,0.209197 0.05468,0.06032 0.117122,0.105833 0.18662,0.135819 0.06985,0.03034 0.146755,0.04551 0.231422,0.04551 0.05997,0 0.115711,-0.0064 0.166511,-0.01835 0.0508,-0.01235 0.09701,-0.03069 0.138642,-0.05503 0.04163,-0.02469 0.08079,-0.05327 0.117122,-0.08573 0.03669,-0.03246 0.0702,-0.06879 0.101247,-0.109361 l 0.104069,0.08079 0.103717,0.08079 c -0.08326,0.128058 -0.187325,0.224367 -0.312561,0.288219 -0.124883,0.06385 -0.270581,0.09596 -0.437092,0.09596"
     style="fill:#001982;fill-opacity:1;fill-rule:nonzero;stroke:none;stroke-width:0.352778"
     id="path436" />
  <path
     d="m 44.831034,21.060307 c -0.0254,-0.0042 -0.05221,-0.0074 -0.08008,-0.0095 -0.02787,-0.0021 -0.0568,-0.0035 -0.08714,-0.0035 -0.111477,0 -0.204964,0.02399 -0.280458,0.07161 -0.07549,0.04727 -0.13335,0.118533 -0.173214,0.213431 v 0.705908 0.705908 h -0.170039 -0.170039 v -0.99448 -0.994481 h 0.165453 0.165453 l 0.0028,0.115006 0.0028,0.115358 c 0.05574,-0.0889 0.12312,-0.155575 0.202142,-0.200378 0.07902,-0.04445 0.169686,-0.06668 0.271992,-0.06668 0.03281,0 0.06209,0.0025 0.08714,0.0067 0.02505,0.0042 0.04621,0.01058 0.06315,0.01905 v 0.158045 z"
     style="fill:#001982;fill-opacity:1;fill-rule:nonzero;stroke:none;stroke-width:0.352778"
     id="path440" />
  <path
     d="m 46.301412,22.216497 c 0,-0.04586 -0.0085,-0.08678 -0.02575,-0.122414 -0.01729,-0.03563 -0.04339,-0.06632 -0.07796,-0.09172 -0.03457,-0.0254 -0.08184,-0.04904 -0.142169,-0.07091 -0.06032,-0.02187 -0.133703,-0.04198 -0.219781,-0.06033 -0.08608,-0.0187 -0.163336,-0.03881 -0.231775,-0.06068 -0.06809,-0.02222 -0.127352,-0.04586 -0.1778,-0.07161 -0.0508,-0.02575 -0.0949,-0.05397 -0.131939,-0.08467 -0.03739,-0.03069 -0.06809,-0.0635 -0.09243,-0.09913 -0.02434,-0.03563 -0.04233,-0.07444 -0.05468,-0.11677 -0.01199,-0.04233 -0.01799,-0.08819 -0.01799,-0.136878 0,-0.08149 0.01729,-0.156633 0.05151,-0.225425 0.03457,-0.06914 0.08608,-0.131586 0.155222,-0.18803 0.06879,-0.05645 0.147461,-0.09878 0.235656,-0.127 0.08784,-0.02822 0.185561,-0.04233 0.292805,-0.04233 0.112536,0 0.214842,0.01446 0.306211,0.04374 0.09137,0.02893 0.172156,0.07267 0.242359,0.130881 0.0702,0.05821 0.122766,0.12453 0.157691,0.198966 0.03493,0.07444 0.05256,0.156986 0.05256,0.248003 h -0.170744 -0.171097 c 0,-0.04692 -0.0095,-0.09031 -0.02963,-0.130528 -0.01975,-0.03986 -0.04939,-0.07691 -0.0889,-0.110419 -0.03951,-0.03387 -0.08396,-0.05927 -0.133702,-0.0762 -0.05009,-0.01693 -0.104775,-0.0254 -0.164748,-0.0254 -0.06209,0 -0.117122,0.0071 -0.165452,0.02081 -0.04833,0.0134 -0.08996,0.03351 -0.125237,0.06032 -0.03457,0.02716 -0.06068,0.05821 -0.07832,0.09349 -0.01729,0.03528 -0.02611,0.07444 -0.02611,0.11818 0,0.04092 0.0081,0.07691 0.02434,0.10795 0.01588,0.03104 0.04022,0.0568 0.07267,0.07761 0.03281,0.02081 0.07832,0.04127 0.137231,0.06103 0.05856,0.01976 0.130527,0.03951 0.215194,0.05856 0.08467,0.0187 0.161572,0.03986 0.230364,0.06244 0.06879,0.02258 0.129469,0.04727 0.182033,0.07338 0.05256,0.02646 0.09842,0.05539 0.137584,0.08714 0.03881,0.03175 0.07126,0.06597 0.09666,0.103364 0.0254,0.03669 0.04445,0.07796 0.05715,0.123119 0.01305,0.04516 0.0194,0.09454 0.0194,0.147814 0,0.0889 -0.01764,0.16898 -0.05362,0.239889 -0.03528,0.07126 -0.08855,0.133703 -0.159808,0.187325 -0.07091,0.05362 -0.152753,0.09384 -0.244828,0.12065 -0.09208,0.02681 -0.194733,0.04022 -0.307975,0.04022 -0.08008,0 -0.154869,-0.0071 -0.225425,-0.02117 -0.07056,-0.01411 -0.136172,-0.03528 -0.197555,-0.0635 -0.06138,-0.02822 -0.116064,-0.06209 -0.164042,-0.101247 -0.04762,-0.03951 -0.0889,-0.08431 -0.123472,-0.134762 -0.03493,-0.0508 -0.06068,-0.103363 -0.07796,-0.158044 -0.01729,-0.05468 -0.02611,-0.111478 -0.02611,-0.170039 h 0.170039 0.170039 c 0.0032,0.0568 0.01588,0.10795 0.03881,0.153106 0.02293,0.04516 0.05539,0.08431 0.09842,0.117827 0.04233,0.03351 0.09172,0.05856 0.147814,0.07514 0.05609,0.01693 0.119238,0.02505 0.189441,0.02505 0.06421,0 0.122061,-0.0064 0.173567,-0.0194 0.0515,-0.01305 0.09666,-0.03246 0.135467,-0.05856 0.03916,-0.02611 0.06844,-0.05644 0.08784,-0.09137 0.0194,-0.03457 0.02893,-0.07373 0.02893,-0.117475"
     style="fill:#001982;fill-opacity:1;fill-rule:nonzero;stroke:none;stroke-width:0.352778"
     id="path444" />
  <path
     d="m 47.336497,21.771717 c 0,0.110067 0.0127,0.20955 0.0381,0.29845 0.02575,0.08855 0.06421,0.166158 0.115358,0.232833 0.05115,0.06668 0.111125,0.11677 0.179211,0.150284 0.06844,0.03351 0.145698,0.05009 0.231423,0.05009 0.08643,0 0.164041,-0.01693 0.23248,-0.0508 0.06879,-0.03387 0.128411,-0.08467 0.179211,-0.152047 0.0508,-0.06809 0.0889,-0.149225 0.1143,-0.244122 0.02575,-0.0949 0.03845,-0.2032 0.03845,-0.324909 0,-0.109008 -0.01305,-0.207786 -0.03916,-0.296333 -0.02575,-0.08855 -0.06456,-0.166511 -0.116417,-0.234244 -0.0515,-0.06773 -0.11183,-0.118534 -0.180622,-0.1524 -0.06879,-0.03387 -0.14605,-0.0508 -0.232128,-0.0508 -0.08361,0 -0.159455,0.01693 -0.227189,0.05045 -0.06773,0.03316 -0.127353,0.08361 -0.178858,0.150283 -0.05151,0.06668 -0.08996,0.147814 -0.115711,0.243417 -0.02575,0.0956 -0.03845,0.205316 -0.03845,0.329847 m -0.34184,-0.04022 c 0,-0.09737 0.0095,-0.189794 0.02857,-0.277636 0.0194,-0.08749 0.04798,-0.170391 0.08608,-0.248003 0.03845,-0.07796 0.08431,-0.146755 0.137583,-0.206727 0.05327,-0.06033 0.1143,-0.111478 0.182387,-0.153459 0.06844,-0.04233 0.141463,-0.07408 0.219427,-0.0956 0.07761,-0.02117 0.160514,-0.0314 0.248003,-0.0314 0.135467,0 0.257881,0.02328 0.367242,0.0702 0.109714,0.04692 0.206375,0.117122 0.289983,0.210961 0.08361,0.09384 0.146403,0.202847 0.188383,0.327731 0.04198,0.12453 0.06279,0.264583 0.06279,0.420158 v 0.012 0.01199 c 0,0.09666 -0.0095,0.188736 -0.02822,0.275519 -0.01834,0.08678 -0.04621,0.168628 -0.08326,0.245534 -0.03704,0.07691 -0.08184,0.145344 -0.135114,0.205316 -0.05292,0.05997 -0.113594,0.111478 -0.182739,0.154164 -0.06879,0.04304 -0.142875,0.07514 -0.22225,0.09666 -0.07902,0.02117 -0.163336,0.03175 -0.252941,0.03175 -0.134761,0 -0.256823,-0.02328 -0.365831,-0.0702 -0.109361,-0.04692 -0.205669,-0.117123 -0.289278,-0.210961 -0.08361,-0.09384 -0.146402,-0.202495 -0.18803,-0.326673 -0.04198,-0.123825 -0.0628,-0.262819 -0.0628,-0.417336 v -0.01199 z"
     style="fill:#001982;fill-opacity:1;fill-rule:nonzero;stroke:none;stroke-width:0.352778"
     id="path448" />
  <path
     d="m 49.552894,20.755257 0.0056,0.124883 0.0056,0.125236 c 0.07585,-0.0956 0.163689,-0.167216 0.262467,-0.214841 0.09948,-0.04798 0.210255,-0.07197 0.332669,-0.07197 0.210256,0 0.3683,0.05927 0.474486,0.1778 0.105833,0.118533 0.159808,0.296333 0.161572,0.5334 v 0.657225 0.657225 h -0.169686 -0.170039 v -0.658283 -0.657931 c -7.05e-4,-0.07161 -0.0092,-0.134055 -0.02575,-0.186972 -0.01623,-0.05292 -0.04057,-0.09666 -0.07267,-0.131233 -0.03245,-0.03422 -0.07338,-0.05997 -0.123472,-0.07691 -0.05009,-0.01693 -0.109008,-0.02575 -0.177094,-0.02575 -0.05539,0 -0.106892,0.0074 -0.155575,0.02222 -0.04833,0.01446 -0.09313,0.03669 -0.134761,0.06632 -0.04163,0.02928 -0.07867,0.06315 -0.111125,0.1016 -0.03246,0.0388 -0.06068,0.08184 -0.08396,0.129822 v 0.708378 0.70873 H 49.4012 49.231513 v -0.99448 -0.994481 h 0.160867 z"
     style="fill:#001982;fill-opacity:1;fill-rule:nonzero;stroke:none;stroke-width:0.352778"
     id="path452" />
  <path
     d="m 51.971856,22.484857 c 0.05327,0 0.105128,-0.0071 0.155575,-0.02081 0.05045,-0.01376 0.09984,-0.03422 0.147461,-0.06174 0.04798,-0.02752 0.08925,-0.05927 0.123825,-0.09525 0.03457,-0.03598 0.06244,-0.07585 0.08396,-0.119944 v -0.203906 -0.203906 h -0.13335 -0.132997 c -0.208492,0 -0.364772,0.03034 -0.468842,0.09137 -0.104069,0.06103 -0.15628,0.1524 -0.15628,0.274461 0,0.05327 0.0088,0.100542 0.02681,0.142169 0.01764,0.04163 0.04445,0.07761 0.07973,0.107245 0.03563,0.03034 0.0762,0.05292 0.121708,0.06773 0.04586,0.01517 0.09631,0.02258 0.1524,0.02258 m 0.564444,0.259292 c -0.0099,-0.0194 -0.01905,-0.04692 -0.02681,-0.08185 -0.0081,-0.03492 -0.01517,-0.07761 -0.02117,-0.127705 -0.07902,0.0822 -0.165806,0.14358 -0.26035,0.184502 -0.09454,0.04128 -0.196145,0.06174 -0.305859,0.06174 -0.09807,0 -0.187325,-0.01376 -0.267758,-0.04163 -0.08008,-0.02752 -0.152047,-0.06914 -0.214489,-0.124884 -0.06279,-0.05539 -0.109714,-0.11818 -0.141464,-0.188383 -0.0314,-0.07055 -0.04692,-0.148167 -0.04692,-0.233186 0,-0.103717 0.01976,-0.195439 0.05891,-0.275872 0.03951,-0.08043 0.09842,-0.149578 0.177094,-0.206728 0.07867,-0.05715 0.173214,-0.100189 0.283986,-0.128764 0.110772,-0.02893 0.23742,-0.04339 0.380295,-0.04339 h 0.165452 0.165453 v -0.07796 -0.07796 c 0,-0.05927 -0.0088,-0.112536 -0.02646,-0.160161 -0.01764,-0.04692 -0.04445,-0.08855 -0.08008,-0.123825 -0.03563,-0.03493 -0.07973,-0.06138 -0.131939,-0.07902 -0.05221,-0.01764 -0.113241,-0.02646 -0.182738,-0.02646 -0.06032,0 -0.116064,0.0078 -0.166864,0.02293 -0.0508,0.01517 -0.09666,0.0381 -0.137584,0.06879 -0.04127,0.03069 -0.07232,0.06456 -0.09278,0.1016 -0.02046,0.03704 -0.03069,0.07726 -0.03069,0.12065 H 51.462445 51.2917 c 0,-0.04939 0.0088,-0.09842 0.02646,-0.14605 0.01764,-0.04833 0.0441,-0.09525 0.07937,-0.141464 0.03493,-0.04621 0.07655,-0.08749 0.12453,-0.124177 0.04762,-0.03669 0.101953,-0.06844 0.162278,-0.09525 0.05997,-0.02716 0.123472,-0.04727 0.189795,-0.06103 0.06632,-0.01341 0.135466,-0.02011 0.207786,-0.02011 0.114652,0 0.216605,0.01446 0.306564,0.04304 0.08996,0.02858 0.167216,0.07161 0.232127,0.129116 0.06491,0.05715 0.1143,0.125236 0.148167,0.204259 0.03351,0.07867 0.05151,0.168275 0.05398,0.268816 v 0.457906 0.457553 c 0,0.09137 0.0056,0.173213 0.01729,0.245886 0.01164,0.07232 0.02928,0.135819 0.05221,0.189441 v 0.01482 0.01482 H 52.7141 Z"
     style="fill:#001982;fill-opacity:1;fill-rule:nonzero;stroke:none;stroke-width:0.352778"
     id="path456" />
  <path
     d="m 53.725232,22.744107 h -0.170039 -0.170039 v -1.411464 -1.411816 h 0.170039 0.170039 v 1.411816 z"
     style="fill:#001982;fill-opacity:1;fill-rule:nonzero;stroke:none;stroke-width:0.352778"
     id="path460" />
  <path
     d="m 54.638539,22.744107 h -0.169686 -0.170039 v -0.994481 -0.99448 h 0.170039 0.169686 v 0.99448 z m -0.367594,-2.516364 c 0,-0.02752 0.0042,-0.05292 0.0127,-0.0762 0.0088,-0.02328 0.02117,-0.04445 0.0381,-0.06315 0.01658,-0.01905 0.03739,-0.03351 0.06244,-0.04269 0.02505,-0.0099 0.05433,-0.01446 0.08714,-0.01446 0.03351,0 0.06244,0.0046 0.08749,0.01446 0.02505,0.0092 0.04621,0.02364 0.06315,0.04269 0.01729,0.0187 0.02999,0.03986 0.03845,0.06315 0.0088,0.02328 0.01305,0.04868 0.01305,0.0762 0,0.02752 -0.0042,0.05292 -0.01305,0.0762 -0.0085,0.02258 -0.02117,0.04339 -0.03845,0.06174 -0.01693,0.01835 -0.0381,0.03246 -0.06315,0.04127 -0.02505,0.0095 -0.05398,0.01411 -0.08749,0.01411 -0.03281,0 -0.06209,-0.0046 -0.08714,-0.01411 -0.02505,-0.0088 -0.04586,-0.02293 -0.06244,-0.04127 -0.01693,-0.01834 -0.02928,-0.03916 -0.0381,-0.06174 -0.0085,-0.02328 -0.0127,-0.04868 -0.0127,-0.0762"
     style="fill:#001982;fill-opacity:1;fill-rule:nonzero;stroke:none;stroke-width:0.352778"
     id="path464" />
  <path
     d="m 56.340938,22.216497 c 0,-0.04586 -0.0085,-0.08678 -0.02611,-0.122414 -0.01729,-0.03563 -0.04304,-0.06632 -0.07796,-0.09172 -0.03457,-0.0254 -0.08185,-0.04904 -0.142523,-0.07091 -0.06032,-0.02187 -0.13335,-0.04198 -0.219427,-0.06033 -0.08608,-0.0187 -0.163337,-0.03881 -0.231775,-0.06068 -0.06844,-0.02222 -0.127706,-0.04586 -0.178506,-0.07161 -0.05009,-0.02575 -0.09419,-0.05397 -0.131586,-0.08467 -0.0374,-0.03069 -0.06809,-0.0635 -0.09243,-0.09913 -0.02434,-0.03563 -0.04233,-0.07444 -0.05433,-0.11677 -0.01235,-0.04233 -0.01834,-0.08819 -0.01834,-0.136878 0,-0.08149 0.01729,-0.156633 0.05186,-0.225425 0.03422,-0.06914 0.08608,-0.131586 0.155222,-0.18803 0.06879,-0.05645 0.147109,-0.09878 0.235303,-0.127 0.08819,-0.02822 0.185914,-0.04233 0.292806,-0.04233 0.112889,0 0.214841,0.01446 0.306211,0.04374 0.09172,0.02893 0.172155,0.07267 0.242358,0.130881 0.07056,0.05821 0.122767,0.12453 0.158045,0.198966 0.03493,0.07444 0.05256,0.156986 0.05256,0.248003 h -0.170745 -0.17145 c 0,-0.04692 -0.0095,-0.09031 -0.02928,-0.130528 -0.01976,-0.03986 -0.04904,-0.07691 -0.0889,-0.110419 -0.03951,-0.03387 -0.08396,-0.05927 -0.133703,-0.0762 -0.05009,-0.01693 -0.104775,-0.0254 -0.1651,-0.0254 -0.06209,0 -0.117122,0.0071 -0.165453,0.02081 -0.04833,0.0134 -0.08996,0.03351 -0.124531,0.06032 -0.03528,0.02716 -0.06138,0.05821 -0.07902,0.09349 -0.01729,0.03528 -0.02611,0.07444 -0.02611,0.11818 0,0.04092 0.0081,0.07691 0.02434,0.10795 0.01623,0.03104 0.04092,0.0568 0.07338,0.07761 0.03246,0.02081 0.07796,0.04127 0.136525,0.06103 0.05856,0.01976 0.130175,0.03951 0.215195,0.05856 0.08467,0.0187 0.161572,0.03986 0.230363,0.06244 0.06879,0.02258 0.129823,0.04727 0.182387,0.07338 0.05221,0.02646 0.09842,0.05539 0.137583,0.08714 0.03916,0.03175 0.07161,0.06597 0.09666,0.103364 0.0254,0.03669 0.04445,0.07796 0.05715,0.123119 0.0127,0.04516 0.0194,0.09454 0.0194,0.147814 0,0.0889 -0.01799,0.16898 -0.05362,0.239889 -0.03563,0.07126 -0.08855,0.133703 -0.160162,0.187325 -0.07091,0.05362 -0.1524,0.09384 -0.244827,0.12065 -0.09208,0.02681 -0.195086,0.04022 -0.307975,0.04022 -0.07973,0 -0.15487,-0.0071 -0.225425,-0.02117 -0.0702,-0.01411 -0.136173,-0.03528 -0.197203,-0.0635 -0.06138,-0.02822 -0.116064,-0.06209 -0.164042,-0.101247 -0.04798,-0.03951 -0.08925,-0.08431 -0.123825,-0.134762 -0.03457,-0.0508 -0.06068,-0.103363 -0.07796,-0.158044 -0.01729,-0.05468 -0.02575,-0.111478 -0.02575,-0.170039 h 0.170038 0.169687 c 0.0032,0.0568 0.01623,0.10795 0.03916,0.153106 0.02258,0.04516 0.05539,0.08431 0.09772,0.117827 0.04269,0.03351 0.09207,0.05856 0.14852,0.07514 0.05609,0.01693 0.119239,0.02505 0.189089,0.02505 0.0642,0 0.122414,-0.0064 0.173566,-0.0194 0.05186,-0.01305 0.09737,-0.03246 0.136173,-0.05856 0.0388,-0.02611 0.06809,-0.05644 0.08749,-0.09137 0.01976,-0.03457 0.02928,-0.07373 0.02928,-0.117475"
     style="fill:#001982;fill-opacity:1;fill-rule:nonzero;stroke:none;stroke-width:0.352778"
     id="path468" />
  <path
     d="m 57.906742,20.997787 c -0.06844,0 -0.131586,0.0127 -0.189089,0.03739 -0.05785,0.02505 -0.110067,0.06279 -0.15628,0.112537 -0.04657,0.05009 -0.08467,0.110066 -0.113242,0.179916 -0.02893,0.0702 -0.04868,0.150284 -0.05997,0.240242 h 0.498122 0.498122 v -0.01305 -0.01305 c -0.0049,-0.08608 -0.01905,-0.16263 -0.04233,-0.229658 -0.02328,-0.06703 -0.05574,-0.124178 -0.09737,-0.171803 -0.04163,-0.04727 -0.09066,-0.0829 -0.147108,-0.106539 -0.05609,-0.02399 -0.119945,-0.03598 -0.190853,-0.03598 m 0.04198,1.782939 c -0.134762,0 -0.256823,-0.02187 -0.366537,-0.06632 -0.109361,-0.04445 -0.206727,-0.110773 -0.291041,-0.19932 -0.08467,-0.08855 -0.148167,-0.191911 -0.1905,-0.310091 -0.04198,-0.118534 -0.06315,-0.251884 -0.06315,-0.40005 V 21.7739 21.7425 c 0,-0.09878 0.0092,-0.192264 0.02787,-0.280458 0.01905,-0.08784 0.04727,-0.170745 0.08467,-0.248356 0.03775,-0.07726 0.0829,-0.146403 0.135466,-0.207081 0.05292,-0.06068 0.113242,-0.112888 0.180975,-0.156633 0.06773,-0.04374 0.138289,-0.07655 0.211667,-0.09842 0.07338,-0.02187 0.149225,-0.03316 0.2286,-0.03316 0.129117,0 0.243769,0.02152 0.344664,0.06421 0.100189,0.04233 0.186267,0.106186 0.25788,0.191558 0.07161,0.08502 0.125237,0.188736 0.16122,0.310444 0.03634,0.122061 0.05397,0.262467 0.05397,0.421217 v 0.07056 0.07055 H 58.051025 57.37722 c 0.0028,0.09842 0.01834,0.186972 0.04692,0.265995 0.02857,0.07937 0.0702,0.148872 0.124883,0.209197 0.05503,0.06032 0.117123,0.105833 0.187325,0.135819 0.0695,0.03034 0.146756,0.04551 0.23107,0.04551 0.05997,0 0.115358,-0.0064 0.166158,-0.01835 0.0508,-0.01235 0.09701,-0.03069 0.138289,-0.05503 0.04163,-0.02469 0.08114,-0.05327 0.117475,-0.08573 0.03669,-0.03246 0.07056,-0.06879 0.1016,-0.109361 l 0.104069,0.08079 0.103717,0.08079 c -0.08326,0.128058 -0.187325,0.224367 -0.312561,0.288219 -0.124883,0.06385 -0.270581,0.09596 -0.437444,0.09596"
     style="fill:#001982;fill-opacity:1;fill-rule:nonzero;stroke:none;stroke-width:0.352778"
     id="path472" />
  <path
     d="m 59.374686,21.771717 c 0,0.112536 0.01199,0.213078 0.03528,0.301272 0.02328,0.08819 0.05856,0.164395 0.104422,0.227895 0.04692,0.06385 0.102658,0.111477 0.166511,0.14358 0.06456,0.0321 0.137936,0.04798 0.219781,0.04798 0.10795,0 0.201083,-0.02434 0.279752,-0.07267 0.07867,-0.04833 0.142875,-0.121003 0.192617,-0.218017 v -0.456494 -0.456848 c -0.0508,-0.09384 -0.115358,-0.164041 -0.193322,-0.210961 -0.07796,-0.04692 -0.169686,-0.0702 -0.275167,-0.0702 -0.08326,0 -0.157339,0.01587 -0.222603,0.04833 -0.06491,0.0321 -0.12065,0.08008 -0.167569,0.144639 -0.04586,0.06456 -0.08114,0.144286 -0.104422,0.239536 -0.02328,0.09525 -0.03528,0.20567 -0.03528,0.331964 m -0.339372,-0.03881 c 0,-0.1524 0.01799,-0.289983 0.05398,-0.41275 0.03634,-0.122413 0.09031,-0.230363 0.16263,-0.323144 0.07232,-0.09278 0.155928,-0.162278 0.25012,-0.208844 0.0949,-0.04621 0.20073,-0.0695 0.317853,-0.0695 0.116416,0 0.220486,0.01976 0.312561,0.05962 0.09243,0.03986 0.172508,0.09984 0.240594,0.179211 v -0.518231 -0.518583 h 0.170392 0.170039 v 1.411817 1.411464 h -0.156281 -0.156633 l -0.0081,-0.106539 -0.0085,-0.106892 c -0.06809,0.08361 -0.149225,0.14605 -0.244122,0.187678 -0.0949,0.04163 -0.202494,0.06244 -0.32385,0.06244 -0.115358,0 -0.219781,-0.02364 -0.313619,-0.07055 -0.09384,-0.04727 -0.177095,-0.117828 -0.249767,-0.212372 -0.07232,-0.09419 -0.126647,-0.2032 -0.162983,-0.32632 -0.03634,-0.123119 -0.05433,-0.260703 -0.05433,-0.41275 v -0.0127 z"
     style="fill:#001982;fill-opacity:1;fill-rule:nonzero;stroke:none;stroke-width:0.352778"
     id="path476" />
  <path
     d="m 40.034245,24.918457 0.437444,1.091847 0.437445,1.091847 0.437444,-1.091847 0.437445,-1.091847 h 0.228953 0.228952 v 1.338086 1.338086 h -0.176389 -0.176741 v -0.521053 -0.521052 l 0.01658,-0.562328 0.01693,-0.562328 -0.439561,1.083381 -0.439562,1.08338 H 40.908424 40.77331 l -0.438502,-1.080911 -0.438503,-1.080558 0.01764,0.559505 0.01764,0.559859 v 0.521052 0.521053 h -0.176742 -0.176389 v -1.338086 -1.338086 h 0.227895 z"
     style="fill:#001982;fill-opacity:1;fill-rule:nonzero;stroke:none;stroke-width:0.352778"
     id="path480" />
  <path
     d="m 43.594584,25.848487 c -0.06844,0 -0.131939,0.0127 -0.189442,0.03739 -0.0575,0.02505 -0.109361,0.06279 -0.155927,0.112537 -0.04657,0.05009 -0.08431,0.110066 -0.112889,0.179916 -0.02893,0.0702 -0.04868,0.150284 -0.05997,0.240242 h 0.498123 0.497769 v -0.01305 -0.01305 c -0.0049,-0.08608 -0.0187,-0.16263 -0.04198,-0.229658 -0.02328,-0.06703 -0.05574,-0.124178 -0.09737,-0.171803 -0.04163,-0.04727 -0.09066,-0.0829 -0.147108,-0.106539 -0.05644,-0.02399 -0.120298,-0.03598 -0.191206,-0.03598 m 0.04198,1.782939 c -0.134409,0 -0.256823,-0.02187 -0.366184,-0.06632 -0.109714,-0.04445 -0.20708,-0.110773 -0.291747,-0.19932 -0.08431,-0.08855 -0.147814,-0.191911 -0.190147,-0.310091 -0.04198,-0.118534 -0.06315,-0.251884 -0.06315,-0.40005 V 26.6246 26.5932 c 0,-0.09878 0.0092,-0.192264 0.02822,-0.280458 0.0187,-0.08784 0.04727,-0.170745 0.08502,-0.248356 0.0374,-0.07726 0.08255,-0.146403 0.135114,-0.207081 0.05292,-0.06068 0.113242,-0.112888 0.180975,-0.156633 0.06738,-0.04374 0.137936,-0.07655 0.211314,-0.09842 0.07338,-0.02187 0.149578,-0.03316 0.2286,-0.03316 0.129469,0 0.244122,0.02152 0.344664,0.06421 0.100542,0.04233 0.186619,0.106186 0.258233,0.191558 0.07161,0.08502 0.125236,0.188736 0.161572,0.310444 0.03563,0.122061 0.05362,0.262467 0.05362,0.421217 v 0.07056 0.07055 H 43.73887 43.065065 c 0.0025,0.09842 0.01799,0.186972 0.04657,0.265995 0.02893,0.07937 0.07056,0.148872 0.125589,0.209197 0.05468,0.06032 0.11677,0.105833 0.18662,0.135819 0.0695,0.03034 0.146755,0.04551 0.231422,0.04551 0.05997,0 0.115358,-0.0064 0.166158,-0.01835 0.0508,-0.01235 0.09701,-0.03069 0.138995,-0.05503 0.04163,-0.02469 0.08043,-0.05327 0.117122,-0.08573 0.03634,-0.03246 0.0702,-0.06879 0.1016,-0.109361 l 0.104069,0.08079 0.103717,0.08079 c -0.08326,0.128058 -0.187678,0.224367 -0.312561,0.288219 -0.125236,0.06385 -0.270934,0.09596 -0.437797,0.09596"
     style="fill:#001982;fill-opacity:1;fill-rule:nonzero;stroke:none;stroke-width:0.352778"
     id="path484" />
  <path
     d="m 45.063056,26.622407 c 0,0.112536 0.01164,0.213078 0.03492,0.301272 0.02328,0.08819 0.05821,0.164395 0.104422,0.227895 0.04657,0.06385 0.102306,0.111477 0.166511,0.14358 0.06456,0.0321 0.137584,0.04798 0.219781,0.04798 0.107597,0 0.201083,-0.02434 0.279753,-0.07267 0.07867,-0.04833 0.142875,-0.121003 0.192969,-0.218017 v -0.456494 -0.456848 c -0.05115,-0.09384 -0.115711,-0.164041 -0.193675,-0.210961 -0.07832,-0.04692 -0.170039,-0.0702 -0.275519,-0.0702 -0.08326,0 -0.157339,0.01587 -0.22225,0.04833 -0.06491,0.0321 -0.121003,0.08008 -0.16757,0.144639 -0.04621,0.06456 -0.08114,0.144286 -0.104422,0.239536 -0.02328,0.09525 -0.03492,0.20567 -0.03492,0.331964 m -0.340078,-0.03881 c 0,-0.1524 0.01799,-0.289983 0.05433,-0.41275 0.03598,-0.122413 0.09031,-0.230363 0.162631,-0.323144 0.07197,-0.09278 0.155575,-0.162278 0.250119,-0.208844 0.0949,-0.04621 0.200731,-0.0695 0.317853,-0.0695 0.116416,0 0.220486,0.01976 0.312561,0.05962 0.09243,0.03986 0.172508,0.09984 0.240947,0.179211 v -0.518231 -0.518583 h 0.169686 0.170039 v 1.411817 1.411464 h -0.15628 -0.156281 l -0.0085,-0.106539 -0.0085,-0.106892 c -0.06773,0.08361 -0.148873,0.14605 -0.24377,0.187678 -0.09454,0.04163 -0.202494,0.06244 -0.32385,0.06244 -0.115005,0 -0.21978,-0.02364 -0.313619,-0.07055 -0.09384,-0.04727 -0.177095,-0.117828 -0.249414,-0.212372 -0.07267,-0.09419 -0.127353,-0.2032 -0.163689,-0.32632 -0.03634,-0.123119 -0.05433,-0.260703 -0.05433,-0.41275 v -0.0127 z"
     style="fill:#001982;fill-opacity:1;fill-rule:nonzero;stroke:none;stroke-width:0.352778"
     id="path488" />
  <path
     d="m 47.29808,27.594807 h -0.170039 -0.170039 v -0.994481 -0.99448 h 0.170039 0.170039 v 0.99448 z m -0.367594,-2.516364 c 0,-0.02752 0.0042,-0.05292 0.0127,-0.0762 0.0081,-0.02328 0.02081,-0.04445 0.03739,-0.06315 0.01693,-0.01905 0.0381,-0.03351 0.06315,-0.04269 0.02505,-0.0099 0.05398,-0.01446 0.08678,-0.01446 0.03316,0 0.06209,0.0046 0.08714,0.01446 0.0254,0.0092 0.04657,0.02364 0.06385,0.04269 0.01693,0.0187 0.02999,0.03986 0.03845,0.06315 0.0085,0.02328 0.01305,0.04868 0.01305,0.0762 0,0.02752 -0.0046,0.05292 -0.01305,0.0762 -0.0085,0.02258 -0.02152,0.04339 -0.03845,0.06174 -0.01729,0.01835 -0.03845,0.03246 -0.06385,0.04127 -0.02505,0.0095 -0.05398,0.01411 -0.08714,0.01411 -0.03281,0 -0.06174,-0.0046 -0.08678,-0.01411 -0.02505,-0.0088 -0.04621,-0.02293 -0.06315,-0.04127 -0.01658,-0.01834 -0.02928,-0.03916 -0.03739,-0.06174 -0.0085,-0.02328 -0.0127,-0.04868 -0.0127,-0.0762"
     style="fill:#001982;fill-opacity:1;fill-rule:nonzero;stroke:none;stroke-width:0.352778"
     id="path492" />
  <path
     d="m 48.639588,27.354137 c 0.06068,0 0.117475,-0.0092 0.170392,-0.02752 0.05327,-0.01834 0.102305,-0.04586 0.147461,-0.08255 0.04551,-0.03704 0.08043,-0.07832 0.105833,-0.12453 0.0247,-0.04586 0.03986,-0.09631 0.0448,-0.151695 h 0.161219 0.160867 c -0.0032,0.05715 -0.01446,0.112889 -0.03422,0.166864 -0.01976,0.05433 -0.04763,0.107245 -0.08361,0.15875 -0.03634,0.05151 -0.07832,0.09737 -0.126647,0.138642 -0.04798,0.04092 -0.102658,0.07691 -0.162983,0.107244 -0.06032,0.03069 -0.122414,0.05397 -0.186267,0.06914 -0.06385,0.01552 -0.129469,0.02293 -0.19685,0.02293 -0.135114,0 -0.256822,-0.02258 -0.364419,-0.06773 -0.107598,-0.04516 -0.201437,-0.112889 -0.28187,-0.2032 -0.07973,-0.09031 -0.1397,-0.197556 -0.179564,-0.321028 -0.04022,-0.123472 -0.05997,-0.263878 -0.05997,-0.420511 v -0.02858 -0.02858 c 0,-0.09701 0.0088,-0.188383 0.02646,-0.274461 0.01799,-0.08608 0.04445,-0.166864 0.08043,-0.242006 0.03528,-0.07549 0.07867,-0.142169 0.129469,-0.20073 0.0508,-0.05856 0.109714,-0.108656 0.176389,-0.150283 0.06632,-0.04163 0.138642,-0.07302 0.217311,-0.09384 0.07867,-0.02081 0.162983,-0.0314 0.254,-0.0314 0.111478,0 0.213783,0.01693 0.306211,0.05045 0.09243,0.03351 0.175684,0.08326 0.249767,0.150283 0.07373,0.06668 0.130528,0.143228 0.169686,0.230011 0.03951,0.08678 0.06174,0.183445 0.06668,0.289631 h -0.160867 -0.161219 c -0.0049,-0.06421 -0.01976,-0.122767 -0.04375,-0.175331 -0.02434,-0.05292 -0.05821,-0.09984 -0.101952,-0.141464 -0.0441,-0.04127 -0.09313,-0.07232 -0.147109,-0.09313 -0.05398,-0.02046 -0.113241,-0.03104 -0.177447,-0.03104 -0.08643,0 -0.162983,0.01552 -0.230011,0.04692 -0.06703,0.03104 -0.123825,0.07761 -0.17145,0.140053 -0.04762,0.06209 -0.08326,0.137936 -0.106892,0.227894 -0.02364,0.08996 -0.03563,0.193675 -0.03563,0.31115 v 0.0321 0.03245 c 0,0.114653 0.01199,0.2159 0.03528,0.304095 0.02364,0.08819 0.05891,0.163336 0.106186,0.225425 0.04727,0.06138 0.104422,0.10795 0.171802,0.138994 0.06738,0.03105 0.144992,0.04657 0.232481,0.04657"
     style="fill:#001982;fill-opacity:1;fill-rule:nonzero;stroke:none;stroke-width:0.352778"
     id="path496" />
  <path
     d="M 50.181615,27.594807 H 50.011576 49.84189 v -0.994481 -0.99448 h 0.169686 0.170039 v 0.99448 z m -0.367594,-2.516364 c 0,-0.02752 0.0042,-0.05292 0.0127,-0.0762 0.0085,-0.02328 0.02117,-0.04445 0.03775,-0.06315 0.01693,-0.01905 0.03775,-0.03351 0.06279,-0.04269 0.02505,-0.0099 0.05398,-0.01446 0.08714,-0.01446 0.03316,0 0.06209,0.0046 0.08714,0.01446 0.02505,0.0092 0.04621,0.02364 0.0635,0.04269 0.01693,0.0187 0.02999,0.03986 0.03845,0.06315 0.0088,0.02328 0.01305,0.04868 0.01305,0.0762 0,0.02752 -0.0042,0.05292 -0.01305,0.0762 -0.0085,0.02258 -0.02152,0.04339 -0.03845,0.06174 -0.01729,0.01835 -0.03845,0.03246 -0.0635,0.04127 -0.02505,0.0095 -0.05398,0.01411 -0.08714,0.01411 -0.03316,0 -0.06209,-0.0046 -0.08714,-0.01411 -0.02505,-0.0088 -0.04586,-0.02293 -0.06279,-0.04127 -0.01658,-0.01834 -0.02928,-0.03916 -0.03775,-0.06174 -0.0085,-0.02328 -0.0127,-0.04868 -0.0127,-0.0762"
     style="fill:#001982;fill-opacity:1;fill-rule:nonzero;stroke:none;stroke-width:0.352778"
     id="path500" />
  <path
     d="m 51.047543,25.605947 0.0053,0.124883 0.0053,0.125236 c 0.0762,-0.0956 0.163689,-0.167216 0.26282,-0.214841 0.09948,-0.04798 0.210255,-0.07197 0.333022,-0.07197 0.209903,0 0.367947,0.05927 0.474133,0.1778 0.105834,0.118533 0.159809,0.296333 0.161573,0.5334 v 0.657225 0.657225 h -0.170039 -0.170039 v -0.658283 -0.657931 c -3.53e-4,-0.07161 -0.0088,-0.134055 -0.0254,-0.186972 -0.01623,-0.05292 -0.04057,-0.09666 -0.07303,-0.131233 -0.03175,-0.03422 -0.07303,-0.05997 -0.12312,-0.07691 -0.05009,-0.01693 -0.109008,-0.02575 -0.177094,-0.02575 -0.05503,0 -0.106892,0.0074 -0.155222,0.02222 -0.04833,0.01446 -0.09349,0.03669 -0.135114,0.06632 -0.04163,0.02928 -0.07902,0.06315 -0.111478,0.1016 -0.03246,0.0388 -0.06032,0.08184 -0.08326,0.129822 v 0.708378 0.70873 h -0.170391 -0.170039 v -0.99448 -0.994481 h 0.160867 z"
     style="fill:#001982;fill-opacity:1;fill-rule:nonzero;stroke:none;stroke-width:0.352778"
     id="path504" />
  <path
     d="m 53.585532,25.848487 c -0.06879,0 -0.131939,0.0127 -0.189442,0.03739 -0.0575,0.02505 -0.109361,0.06279 -0.155927,0.112537 -0.04657,0.05009 -0.08431,0.110066 -0.112889,0.179916 -0.02893,0.0702 -0.04868,0.150284 -0.05997,0.240242 h 0.498123 0.497769 v -0.01305 -0.01305 c -0.0049,-0.08608 -0.0187,-0.16263 -0.04198,-0.229658 -0.02328,-0.06703 -0.05574,-0.124178 -0.09737,-0.171803 -0.04163,-0.04727 -0.09066,-0.0829 -0.147108,-0.106539 -0.05645,-0.02399 -0.120298,-0.03598 -0.191206,-0.03598 m 0.04198,1.782939 c -0.134409,0 -0.256823,-0.02187 -0.366537,-0.06632 -0.109713,-0.04445 -0.206727,-0.110773 -0.291394,-0.19932 -0.08431,-0.08855 -0.147814,-0.191911 -0.190147,-0.310091 -0.04233,-0.118534 -0.06315,-0.251884 -0.06315,-0.40005 V 26.6246 26.5932 c 0,-0.09878 0.0092,-0.192264 0.02822,-0.280458 0.0187,-0.08784 0.04727,-0.170745 0.08502,-0.248356 0.03739,-0.07726 0.08255,-0.146403 0.135114,-0.207081 0.05292,-0.06068 0.113242,-0.112888 0.180622,-0.156633 0.06773,-0.04374 0.138289,-0.07655 0.211667,-0.09842 0.07338,-0.02187 0.149578,-0.03316 0.2286,-0.03316 0.129469,0 0.244122,0.02152 0.344664,0.06421 0.100542,0.04233 0.186619,0.106186 0.258233,0.191558 0.07161,0.08502 0.125236,0.188736 0.16122,0.310444 0.03598,0.122061 0.05398,0.262467 0.05398,0.421217 v 0.07056 0.07055 h -0.673806 -0.673805 c 0.0025,0.09842 0.01799,0.186972 0.04657,0.265995 0.02858,0.07937 0.07056,0.148872 0.125589,0.209197 0.05468,0.06032 0.11677,0.105833 0.18662,0.135819 0.0695,0.03034 0.146755,0.04551 0.231422,0.04551 0.05997,0 0.115358,-0.0064 0.166158,-0.01835 0.0508,-0.01235 0.09701,-0.03069 0.138995,-0.05503 0.04163,-0.02469 0.08043,-0.05327 0.117122,-0.08573 0.03634,-0.03246 0.0702,-0.06879 0.1016,-0.109361 l 0.104069,0.08079 0.103717,0.08079 c -0.08326,0.128058 -0.187678,0.224367 -0.312561,0.288219 -0.125236,0.06385 -0.270934,0.09596 -0.437797,0.09596"
     style="fill:#001982;fill-opacity:1;fill-rule:nonzero;stroke:none;stroke-width:0.352778"
     id="path508" />
  <path
     d="M 67.798243,0 H 34.798352 V 32.999887 H 67.798243 Z M 67.21616,32.418157 H 35.380435 V 0.582083 H 67.21616 Z"
     style="fill:#e5c3c6;fill-opacity:1;fill-rule:nonzero;stroke:none;stroke-width:0.352778"
     id="path510" />
  <path
     d="M 32.999891,33.000247 H 0 V 3.53e-4 h 32.999891 z"
     style="fill:#001982;fill-opacity:1;fill-rule:nonzero;stroke:none;stroke-width:0.352778"
     id="path512" />
  <path
     d="m 5.0892779,21.696787 c 0.030339,0.162983 0.1876778,0.270581 0.3510139,0.240242 0.1633361,-0.03069 0.2709333,-0.187325 0.2405944,-0.350309 -0.1689805,-0.910166 -0.1227666,-0.684036 -0.1227666,-8.838141 0,-0.909108 0.1689805,-1.827742 0.5281083,-2.710392 C 6.1486695,9.8843761 6.0745862,9.7093984 5.9204223,9.6469567 5.7666112,9.584515 5.5912807,9.6582456 5.528839,9.8120567 5.1393723,10.76879 4.9566335,11.765387 4.9566335,12.748579 c 0,7.853539 -0.052211,7.964664 0.1326444,8.948208"
     style="fill:#e0b9bd;fill-opacity:1;fill-rule:nonzero;stroke:none;stroke-width:0.352778"
     id="path516" />
  <path
     d="M 10.256732,6.964538 C 7.9975432,7.9470241 6.4608432,10.187163 6.4608432,12.748682 v 3.003197 c 0,0.165806 0.1347611,0.300214 0.3005667,0.300214 0.1661583,0 0.3009194,-0.134408 0.3009194,-0.300214 v -3.003197 c 0,-2.31775 1.3902972,-4.3441051 3.4349967,-5.2334579 0.152048,-0.066322 0.221898,-0.2434167 0.155575,-0.3954639 C 10.586579,6.967713 10.409132,6.8982158 10.256732,6.964538"
     style="fill:#e0b9bd;fill-opacity:1;fill-rule:nonzero;stroke:none;stroke-width:0.352778"
     id="path520" />
  <path
     d="m 8.9024879,25.237477 c 0.1312333,0.101953 0.3203222,0.07832 0.422275,-0.05256 C 9.4267157,25.05368 9.4030796,24.865296 9.2718462,24.763344 7.894249,23.693369 7.0627518,22.05013 7.0623991,20.256608 v -3.003197 c 0,-0.165806 -0.1347612,-0.300214 -0.3009195,-0.300214 -0.1661583,0 -0.3005666,0.134408 -0.3005666,0.300214 v 3.003197 c -3.528e-4,1.980847 0.9203972,3.800122 2.4415749,4.980869"
     style="fill:#e0b9bd;fill-opacity:1;fill-rule:nonzero;stroke:none;stroke-width:0.352778"
     id="path524" />
  <path
     d="M 12.372375,4.950177 C 9.9858334,5.0768242 7.6850168,6.2896742 6.2583835,8.4335047 6.1663085,8.5717936 6.2040557,8.7580602 6.3423446,8.8497825 6.4809862,8.9415047 6.6676057,8.9041102 6.7593279,8.7658214 8.0716612,6.7937936 10.181978,5.677252 12.372375,5.5516631 Z"
     style="fill:#e0b9bd;fill-opacity:1;fill-rule:nonzero;stroke:none;stroke-width:0.352778"
     id="path528" />
  <path
     d="m 12.372375,6.456221 c -0.199672,0.013053 -0.401108,0.033514 -0.60325,0.065969 -0.164042,0.026106 -0.275872,0.1802695 -0.249414,0.3439584 0.02646,0.1636889 0.180622,0.2751666 0.344664,0.2490611 0.170392,-0.027164 0.339725,-0.044803 0.508,-0.056797 z"
     style="fill:#e0b9bd;fill-opacity:1;fill-rule:nonzero;stroke:none;stroke-width:0.352778"
     id="path532" />
  <path
     d="m 11.204822,21.446667 c 0.245533,0.434269 0.66675,0.757061 1.167694,0.872067 v -0.62477 c -0.289277,-0.103716 -0.527402,-0.314325 -0.666044,-0.5842 -0.08396,-0.163336 -0.648758,0.0762 -0.50165,0.336903"
     style="fill:#e0b9bd;fill-opacity:1;fill-rule:nonzero;stroke:none;stroke-width:0.352778"
     id="path536" />
  <path
     d="m 12.372375,24.444077 c -2.116314,-0.205669 -3.8064721,-1.984728 -3.8057666,-4.187472 3.528e-4,-1.482372 1.2012083,-2.702631 2.7075696,-2.702983 0.390525,3.52e-4 0.761647,0.08467 1.098197,0.234244 v -0.646289 c -0.710142,-0.25153 -1.516239,-0.266347 -2.301522,0.04022 v -4.433006 c 7.05e-4,-1.395236 1.036461,-2.479675 2.301522,-2.672997 V 9.4679551 C 10.777114,9.6655107 9.4693667,11.024411 9.4693667,12.743849 v 4.74592 c -0.3545416,0.230716 -0.6611055,0.527403 -0.9038166,0.872419 -0.00459,-3.82023 -0.021872,-5.401027 0.026811,-6.059664 0.1411111,-1.831269 1.6982719,-3.5404772 3.7800139,-3.7387383 v -0.60325 C 10.359425,8.1284579 8.7056029,9.530044 8.1584445,11.39518 c -0.2631722,0.885472 -0.193675,0.676628 -0.193675,8.861425 7.056e-4,2.190397 1.4654389,4.029428 3.4579275,4.611864 0.317853,0.09313 0.635353,0.150283 0.949678,0.177447 z"
     style="fill:#e0b9bd;fill-opacity:1;fill-rule:nonzero;stroke:none;stroke-width:0.352778"
     id="path540" />
  <path
     d="m 12.372375,10.994247 c -0.799394,0.183797 -1.395942,0.895703 -1.398764,1.748719 -3.53e-4,0.13335 -3.53e-4,2.773539 -3.53e-4,3.008842 0,0.165806 0.134761,0.300214 0.30092,0.300214 0.166158,0 0.300919,-0.134408 0.300919,-0.300214 v -3.003197 c 3.53e-4,-0.554214 0.353131,-0.964142 0.797278,-1.125361 z"
     style="fill:#e0b9bd;fill-opacity:1;fill-rule:nonzero;stroke:none;stroke-width:0.352778"
     id="path544" />
  <path
     d="m 12.372375,25.951817 c -0.623711,-0.04445 -1.255536,-0.191911 -1.875014,-0.461433 -0.1524,-0.06632 -0.329847,0.0032 -0.396169,0.155222 -0.06632,0.152047 0.0032,0.329142 0.155575,0.395111 0.699558,0.304447 1.412875,0.468489 2.115608,0.513644 z"
     style="fill:#e0b9bd;fill-opacity:1;fill-rule:nonzero;stroke:none;stroke-width:0.352778"
     id="path548" />
  <path
     d="m 12.372375,27.447697 c -2.6426583,-0.155575 -5.170311,-1.738842 -6.2861471,-4.48063 -0.062794,-0.153459 -0.238125,-0.227542 -0.3922889,-0.1651 -0.1538111,0.06244 -0.2278944,0.237419 -0.1654527,0.39123 1.2093222,2.973917 3.9655749,4.697942 6.8438887,4.857044 z"
     style="fill:#e0b9bd;fill-opacity:1;fill-rule:nonzero;stroke:none;stroke-width:0.352778"
     id="path552" />
  <path
     d="m 10.849292,19.613037 c -0.359481,0 -0.651933,0.291747 -0.651933,0.650875 0,0.358775 0.292452,0.650875 0.651933,0.650875 0.359833,0 0.652286,-0.2921 0.652286,-0.650875 0,-0.359128 -0.292453,-0.650875 -0.652286,-0.650875 m 0,1.907469 c -0.693914,0 -1.2583583,-0.563738 -1.2583583,-1.256594 0,-0.692856 0.5644443,-1.256594 1.2583583,-1.256594 0.693914,0 1.258711,0.563738 1.258711,1.256594 0,0.692856 -0.564797,1.256594 -1.258711,1.256594"
     style="fill:#e0b9bd;fill-opacity:1;fill-rule:nonzero;stroke:none;stroke-width:0.352778"
     id="path556" />
  <path
     d="m 15.731172,8.786137 c 0.03528,0.011994 0.101953,0.021872 0.198967,0.030692 0.09737,0.00917 0.163689,0.013405 0.198966,0.013405 0.129823,0 0.253648,-0.017639 0.371828,-0.052917 0.118181,-0.035278 0.222603,-0.095603 0.313972,-0.1813278 0.09137,-0.085019 0.163689,-0.2028472 0.216959,-0.3531306 0.05292,-0.1502833 0.07973,-0.3400777 0.07973,-0.5697361 0,-0.1943805 -0.0254,-0.358775 -0.07549,-0.4945944 -0.0501,-0.1351133 -0.117835,-0.2427105 -0.20356,-0.3224383 -0.08537,-0.079375 -0.18415,-0.1368778 -0.296333,-0.1721555 -0.111831,-0.035278 -0.230011,-0.052917 -0.353836,-0.052917 -0.182739,0 -0.333375,0.014817 -0.451203,0.044097 z M 14.616394,5.7917593 c 0.212372,-0.046919 0.445206,-0.083961 0.699206,-0.1100667 0.253294,-0.026458 0.506941,-0.039864 0.760941,-0.039864 0.270934,0 0.537634,0.025047 0.800453,0.075142 0.262467,0.050094 0.496711,0.1485194 0.703439,0.2956278 0.206375,0.1474611 0.374297,0.3548944 0.50412,0.6226527 0.129822,0.2681111 0.194733,0.6170084 0.194733,1.0466917 0,0.3887611 -0.05468,0.7186083 -0.163689,0.9891888 C 18.006589,8.9420648 17.860539,9.1629037 17.6778,9.3336481 17.494708,9.5047453 17.283747,9.6282175 17.045269,9.7047703 16.806086,9.7813231 16.559847,9.8194231 16.3062,9.8194231 h -0.115006 c -0.05292,0 -0.109008,-0.00141 -0.167922,-0.00423 -0.05927,-0.00318 -0.116769,-0.00741 -0.172861,-0.013406 -0.05574,-0.00564 -0.0956,-0.011642 -0.119239,-0.017639 v 2.1286609 h -1.114778 z"
     style="fill:#ffffff;fill-opacity:1;fill-rule:nonzero;stroke:none;stroke-width:0.352778"
     id="path560" />
  <path
     d="m 20.434758,8.273837 c -0.224014,0 -0.392289,0.089606 -0.504472,0.2695222 -0.112184,0.1795639 -0.176742,0.4310945 -0.194381,0.7549444 h 1.220611 C 20.974508,8.962812 20.938877,8.7081064 20.850683,8.534187 20.762136,8.3606203 20.623494,8.273837 20.434758,8.273837 m 1.380067,3.31223 c -0.147461,0.12947 -0.348192,0.235303 -0.601486,0.317853 -0.253648,0.0822 -0.519289,0.123825 -0.79622,0.123825 -0.306564,0 -0.570794,-0.05327 -0.791986,-0.159103 -0.221192,-0.106186 -0.402519,-0.258938 -0.543983,-0.459316 -0.141817,-0.200025 -0.246592,-0.443089 -0.314325,-0.728839 -0.06773,-0.285397 -0.1016,-0.610658 -0.1016,-0.9757834 0,-0.7948083 0.157691,-1.3821833 0.473427,-1.7621249 0.315384,-0.3799417 0.753181,-0.5697361 1.313745,-0.5697361 0.188736,0 0.371475,0.027869 0.548569,0.083961 0.176742,0.056092 0.334786,0.1499305 0.473075,0.282575 0.138642,0.1322916 0.250825,0.3090333 0.33655,0.5298722 0.08537,0.2208389 0.128059,0.4991805 0.128059,0.835025 0,0.1294694 -0.0074,0.2677583 -0.02187,0.4148666 -0.01482,0.1471084 -0.03704,0.3062111 -0.06668,0.4769556 h -2.149827 c 0.01199,0.365125 0.08855,0.644878 0.230011,0.839258 0.141816,0.194028 0.368653,0.291042 0.681214,0.291042 0.188736,0 0.361244,-0.02928 0.517525,-0.08819 0.15628,-0.05856 0.275872,-0.120298 0.358422,-0.185209 z"
     style="fill:#ffffff;fill-opacity:1;fill-rule:nonzero;stroke:none;stroke-width:0.352778"
     id="path564" />
  <path
     d="M 24.920469,8.538777 C 24.779005,8.48586 24.649183,8.459402 24.531002,8.459402 c -0.159102,0 -0.296333,0.044097 -0.411339,0.1322917 -0.115005,0.088547 -0.193322,0.2120194 -0.234244,0.3711222 V 11.912744 H 22.83273 V 7.4966715 h 0.804686 l 0.123825,0.5298722 h 0.03528 c 0.07691,-0.1943806 0.187325,-0.346075 0.331964,-0.4550833 0.144639,-0.1086556 0.31115,-0.1633362 0.499886,-0.1633362 0.141817,0 0.280106,0.029633 0.415925,0.088547 z"
     style="fill:#ffffff;fill-opacity:1;fill-rule:nonzero;stroke:none;stroke-width:0.352778"
     id="path568" />
  <path
     d="m 20.336933,25.064717 c 0,0.264936 0.02011,0.508706 0.06068,0.731308 0.04092,0.222603 0.102658,0.413456 0.186266,0.573617 0.08326,0.159808 0.190148,0.285044 0.320675,0.375003 0.131234,0.09031 0.286809,0.135114 0.467078,0.135114 0.328789,0 0.583495,-0.142523 0.763764,-0.427567 0.18027,-0.285044 0.270933,-0.747536 0.270933,-1.387475 0,-0.255058 -0.0194,-0.492478 -0.05785,-0.712611 -0.03845,-0.220133 -0.09772,-0.412397 -0.178858,-0.577497 -0.08149,-0.1651 -0.187325,-0.293864 -0.318206,-0.386292 -0.130528,-0.09243 -0.290689,-0.138642 -0.479778,-0.138642 -0.329141,0 -0.583847,0.14605 -0.764116,0.438856 -0.180623,0.292453 -0.270581,0.751064 -0.270581,1.376186 m -0.973667,0 c 0,-0.874889 0.173567,-1.549047 0.5207,-2.021064 0.346781,-0.472722 0.843139,-0.709083 1.487664,-0.709083 0.337961,0 0.633236,0.06491 0.885472,0.194733 0.252589,0.130528 0.462139,0.315383 0.629003,0.555272 0.166864,0.240242 0.291042,0.527403 0.371828,0.862895 0.08114,0.334786 0.121708,0.707319 0.121708,1.117247 0,0.874889 -0.174625,1.548694 -0.523875,2.021064 -0.349602,0.472722 -0.844197,0.709083 -1.484136,0.709083 -0.3429,0 -0.640291,-0.06491 -0.89288,-0.194733 -0.252236,-0.130528 -0.460375,-0.315383 -0.625123,-0.555272 -0.164747,-0.240242 -0.287513,-0.527403 -0.368652,-0.862895 -0.08149,-0.334786 -0.121709,-0.707319 -0.121709,-1.117247"
     style="fill:#ffffff;fill-opacity:1;fill-rule:nonzero;stroke:none;stroke-width:0.352778"
     id="path572" />
  <path
     d="m 18.527218,27.397747 c -0.164042,0.138642 -0.383469,0.239536 -0.657931,0.302331 -0.274813,0.06315 -0.547863,0.09454 -0.81915,0.09454 -0.341136,0 -0.658283,-0.05821 -0.951794,-0.174625 -0.293511,-0.116769 -0.551039,-0.310444 -0.771878,-0.581378 -0.221191,-0.270933 -0.394405,-0.626886 -0.5207,-1.068211 -0.126294,-0.440972 -0.189441,-0.983192 -0.189441,-1.625953 0,-0.667808 0.07126,-1.222727 0.213077,-1.6637 0.14217,-0.440972 0.328084,-0.792338 0.5588,-1.0541 0.230012,-0.261408 0.493889,-0.445911 0.790575,-0.552802 0.296686,-0.107245 0.596548,-0.160867 0.899584,-0.160867 0.309386,0 0.579261,0.02505 0.809625,0.07585 0.230364,0.05045 0.418394,0.106892 0.563386,0.169686 l -0.236714,1.049514 c -0.119945,-0.06279 -0.26035,-0.11183 -0.421217,-0.146403 -0.161219,-0.03457 -0.352072,-0.05186 -0.572911,-0.05186 -0.43568,0 -0.770467,0.188736 -1.003653,0.566914 -0.233891,0.378178 -0.350661,0.970492 -0.350661,1.777294 0,0.346428 0.02681,0.663223 0.08079,0.950031 0.05327,0.286808 0.138642,0.534105 0.255411,0.741892 0.11677,0.208138 0.265289,0.368652 0.445206,0.482247 0.179917,0.113241 0.396169,0.170039 0.648758,0.170039 0.220839,0 0.409928,-0.02963 0.567973,-0.08961 0.157691,-0.05997 0.299861,-0.13088 0.426155,-0.212725 z"
     style="fill:#ffffff;fill-opacity:1;fill-rule:nonzero;stroke:none;stroke-width:0.352778"
     id="path576" />
  <path
     d="m 24.697725,21.177607 h 3.314347 v 1.096433 h -2.121253 v 1.626306 h 1.922286 v 1.096433 h -1.922286 v 1.701447 h 2.159 v 1.096434 h -3.352094 z"
     style="fill:#ffffff;fill-opacity:1;fill-rule:nonzero;stroke:none;stroke-width:0.352778"
     id="path580" />
  <path
     d="m 22.519922,15.861837 c -0.229306,0 -0.401108,0.09172 -0.515056,0.275167 -0.114652,0.183444 -0.180975,0.440619 -0.198966,0.771172 h 1.247069 c 0.01799,-0.342547 -0.01799,-0.602897 -0.108303,-0.780345 -0.09031,-0.177447 -0.23248,-0.265994 -0.424744,-0.265994 m 1.4097,3.382786 c -0.150989,0.132292 -0.3556,0.240594 -0.614539,0.324908 -0.258939,0.08431 -0.530225,0.126295 -0.813505,0.126295 -0.312914,0 -0.582789,-0.05433 -0.80892,-0.162278 -0.225778,-0.108303 -0.410633,-0.264583 -0.555272,-0.469194 -0.144639,-0.204259 -0.251531,-0.452614 -0.321028,-0.744361 -0.06914,-0.291395 -0.103717,-0.623712 -0.103717,-0.996598 0,-0.812094 0.160867,-1.411816 0.483306,-1.799872 0.322086,-0.387703 0.769761,-0.58173 1.341967,-0.58173 0.192616,0 0.379589,0.02858 0.560211,0.08573 0.180975,0.05715 0.341841,0.153105 0.483305,0.288572 0.141817,0.135114 0.256117,0.315736 0.343606,0.541161 0.08714,0.225425 0.13088,0.509764 0.13088,0.852664 0,0.132291 -0.0074,0.273755 -0.02258,0.423686 -0.01482,0.150636 -0.0374,0.312914 -0.06773,0.487186 h -2.195689 c 0.01164,0.372886 0.08996,0.658636 0.23495,0.85725 0.144639,0.198614 0.376414,0.297744 0.695678,0.297744 0.19297,0 0.369006,-0.03034 0.528814,-0.09031 0.159103,-0.05997 0.281517,-0.123119 0.365831,-0.189441 z"
     style="fill:#ffffff;fill-opacity:1;fill-rule:nonzero;stroke:none;stroke-width:0.352778"
     id="path584" />
  <path
     d="m 26.357227,18.712457 c 0.162631,0 0.2921,-0.04057 0.388761,-0.121708 0.09631,-0.08114 0.168275,-0.200025 0.216606,-0.356306 v -2.129014 c -0.06032,-0.05398 -0.127706,-0.09313 -0.2032,-0.117122 -0.0755,-0.02434 -0.173214,-0.03634 -0.293511,-0.03634 -0.240948,0 -0.421923,0.108303 -0.54222,0.324908 -0.12065,0.216253 -0.180975,0.601486 -0.180975,1.154642 0,0.414867 0.04974,0.732367 0.149225,0.951442 0.09913,0.21978 0.254353,0.329494 0.465314,0.329494 m 1.680633,-0.721431 c 0,0.252237 0.0032,0.504825 0.0092,0.757414 0.006,0.252589 0,0.838906 0,0.838906 h -0.831145 v -0.52317 h -0.03634 c -0.204964,0.421217 -0.563386,0.631825 -1.075267,0.631825 -0.457905,0 -0.818091,-0.180622 -1.079852,-0.541513 -0.262114,-0.360892 -0.393348,-0.947209 -0.393348,-1.75895 0,-0.79375 0.141817,-1.396648 0.425098,-1.808692 0.282927,-0.412044 0.70485,-0.618067 1.265061,-0.618067 0.144639,0 0.264936,0.0092 0.361244,0.02716 0.09631,0.01799 0.189795,0.04833 0.280106,0.09031 v -1.82245 h 1.075266 z"
     style="fill:#ffffff;fill-opacity:1;fill-rule:nonzero;stroke:none;stroke-width:0.352778"
     id="path588" />
  <path
     d="m 18.680536,13.263877 -1.223433,2.683933 -0.20567,0.597959 h -0.03563 l -0.214489,-0.579967 -1.30422,-2.701925 h -1.080911 v 6.241697 h 1.063273 v -3.227917 -0.629355 l 0.214488,0.504472 1.080559,2.202745 h 0.375355 l 1.018117,-2.193925 0.250119,-0.613481 v 0.783519 0 3.173942 h 1.125361 v -6.241697 z"
     style="fill:#ffffff;fill-opacity:1;fill-rule:nonzero;stroke:none;stroke-width:0.352778"
     id="path592" />
</svg>
