<?xml version="1.0" encoding="utf-8"?>
<!DOCTYPE svg PUBLIC "-//W3C//DTD SVG 1.1//EN" "http://www.w3.org/Graphics/SVG/1.1/DTD/svg11.dtd">
<svg version="1.1" id="Layer_1" xmlns="http://www.w3.org/2000/svg" xmlns:xlink="http://www.w3.org/1999/xlink" x="0px" y="0px" width="500px" height="423.45px" viewBox="0 0 500 423.45" enable-background="new 0 0 500 423.45" xml:space="preserve">
<line fill="none" stroke="#676A69" stroke-width="2" x1="0" y1="257.093" x2="500" y2="257.093"/>
<path fill="#676A69" d="M23.256,340.698c-10.965,0-18.596-7.046-18.596-18.785v-29.619h6.58v29.619c0,9.189,5.754,12.652,12.016,12.652c6.191,0,12.195-3.523,12.195-12.652v-29.619h6.459v29.619C41.91,333.265,33.883,340.698,23.256,340.698 M92.192,339.913v-47.619h-6.512v33.658c0,0.586,0.12,1.568,0.12,1.568s-0.456-0.845-0.844-1.37l-24.658-33.856h-5.538v47.619h6.521v-34.235c0-0.525-0.13-1.576-0.13-1.576s0.595,0.922,0.845,1.301l24.977,34.511H92.192z M105.369,339.913h6.521v-47.619h-6.521V339.913z M159.313,292.294h-6.201l-12.127,34.382c-0.189,0.586-0.396,1.628-0.396,1.628s-0.189-1.042-0.388-1.628l-12.075-34.382h-6.322l16.77,47.619h4.039L159.313,292.294z M197.07,339.913v-6.132h-21.325V319.76h19.628v-6.132h-19.628v-15.202h20.094v-6.132h-26.614v47.619H197.07z M242.796,339.913l-17.544-19.955c7.105,0,13.564-6.004,13.564-13.643c0-7.684-5.873-14.021-14.744-14.021h-15.383v47.619h6.52v-22.246l19.241,22.246H242.796z M222.9,298.426c6.201,0,9.139,4.376,9.139,7.648c0,5.081-3.395,8.733-9.268,8.733h-7.563v-16.382H222.9 M263.863,340.698c7.949,0,14.607-4.824,14.607-13.367c0-7.967-5.736-11.422-11.154-14.1c-5.865-2.929-10.422-4.677-10.422-9.845c0-3.583,3.118-5.47,6.83-5.47c3.988,0,6.469,0.845,9.406,2.998l3.514-5.357c-3.713-2.602-8.079-4.039-12.851-4.039c-8.535,0-13.755,5.211-13.755,12.265c0,9.052,6.916,12.058,13.686,15.528c4.256,2.154,7.967,4.358,7.967,8.406c0,4.505-3.332,6.658-8.147,6.658c-3.272,0-7.372-1.249-9.922-3.531l-3.712,5.029C254.277,339.466,259.049,340.698,263.863,340.698 M289.176,339.913h6.512v-47.619h-6.512V339.913z M332.8,298.426v-6.132h-26.338v6.132h9.716v41.487h6.52v-41.487H332.8z M371.42,339.913v-6.132h-21.326V319.76h19.629v-6.132h-19.629v-15.202h20.086v-6.132h-26.613v47.619H371.42z M365.029,278.927h-6.262l-6.072,9.594h6.271L365.029,278.927z M420.918,339.913c16.32,0,26.027-10.688,26.027-23.935c0-12.987-9.189-23.685-25.434-23.685h-12.135v47.619H420.918 M421.374,298.167c11.421,0,18.784,8.148,18.784,17.872c0,8.871-5.934,18.009-20.016,18.009h-4.246v-35.881H421.374 M476.428,340.698c10.628,0,18.664-7.434,18.664-18.785v-29.619h-6.469v29.619c0,9.129-5.994,12.652-12.195,12.652c-6.262,0-12.007-3.463-12.007-12.652v-29.619h-6.571v29.619C457.85,333.652,465.472,340.698,476.428,340.698 M29.482,422.675v-6.133h-18.07v-41.488h-6.52v47.621H29.482z M60.402,423.45c10.619,0,18.646-7.434,18.646-18.777v-29.619H72.59v29.619c0,9.121-5.995,12.645-12.188,12.645c-6.27,0-12.016-3.454-12.016-12.645v-29.619h-6.58v29.619C41.807,416.413,49.438,423.45,60.402,423.45 M132.525,422.675l-16.563-25.443l14.548-22.178h-7.502l-9.198,13.953c-0.844,1.258-1.559,2.618-1.559,2.618s-0.784-1.36-1.508-2.472l-9.129-14.1h-8.02l14.607,22.506l-16.502,25.115h7.57l10.56-16.115c0.913-1.378,2.153-3.453,2.153-3.453s1.24,2.152,2.023,3.324l10.629,16.244H132.525z M173.23,422.675v-6.133h-21.326v-14.03h19.629v-6.124h-19.629v-15.201h20.094v-6.133h-26.621v47.621H173.23z M236.432,422.675v-47.621h-5.806l-17.415,23.289l-17.932-23.289h-5.547v47.621h6.528v-34.512c0-0.854-0.138-1.758-0.138-1.758s0.388,0.715,0.654,1.043l15.072,19.637h2.602l14.943-20.162c0.267-0.328,0.654-1.111,0.654-1.111s-0.138,0.973-0.138,1.834v35.029H236.432z M268.781,422.675c10.508,0,14.685-6.985,14.685-12.92c0-5.873-4.315-10.24-8.027-11.343c3.075-1.964,5.478-5.495,5.478-10.964c0-7.434-5.736-12.395-13.832-12.395H254.5v47.621H268.781 M265.981,381.187c5.349,0,8.157,2.541,8.157,6.795c0,3.963-1.637,8.269-8.742,8.269h-4.367v-15.063H265.981 M268.721,402.382c4.822,0,7.958,2.74,7.958,6.848c0,4.444-2.739,7.313-8.612,7.313h-7.037v-14.16H268.721 M318.873,423.45c13.444,0,24.34-10.758,24.34-24.59c0-13.824-9.914-24.59-24.658-24.59c-13.764,0-24.134,10.568-24.134,24.461C294.421,413.089,305.248,423.45,318.873,423.45 M318.623,380.669c10.49,0,17.803,7.614,17.803,17.933c0,11.412-8.217,18.466-17.553,18.466c-9.379,0-17.665-7.769-17.665-18.336C301.208,388.283,308.313,380.669,318.623,380.669 M374.641,423.45c10.629,0,18.664-7.434,18.664-18.777v-29.619h-6.468v29.619c0,9.121-5.995,12.645-12.196,12.645c-6.262,0-12.006-3.454-12.006-12.645v-29.619h-6.572v29.619C356.063,416.413,363.677,423.45,374.641,423.45 M442.217,422.675l-17.544-19.965c7.114,0,13.565-6.004,13.565-13.625c0-7.691-5.874-14.031-14.746-14.031h-15.391v47.621h6.529v-22.238l19.24,22.238H442.217z M422.33,381.187c6.193,0,9.129,4.375,9.129,7.631c0,5.09-3.401,8.742-9.258,8.742h-7.57v-16.373H422.33 M474.11,423.45c11.481,0,21.79-9.19,21.79-22.109h-21.92v6.132h14.35c-1.688,5.736-7.166,9.595-14.021,9.595c-9.655,0-17.545-8.483-17.545-18.146c0-11.017,7.691-18.252,17.287-18.252c5.537,0,9.594,1.5,13.693,4.893l3.979-4.832c-4.573-3.979-9.853-6.459-17.544-6.459c-13.117,0-24.203,9.844-24.203,24.59C449.977,413.604,462.053,423.45,474.11,423.45"/>
<path fill="#E31B1D" d="M238.326,55.157c7.02,0,13.1-3.979,16.131-10.104h2.068v158.717c0,10.034-8.148,18.191-18.199,18.191c-10.043,0-18.19-8.157-18.19-18.191V45.054h2.075C225.252,51.178,231.324,55.157,238.326,55.157 M223.142,18.518c0,8.406,6.804,15.228,15.219,15.228c8.406,0,15.228-6.821,15.228-15.228c0-8.406-6.821-15.201-15.228-15.201C229.945,3.316,223.142,10.112,223.142,18.518 M223.142,18.518c0,8.406,6.804,15.228,15.219,15.228c8.406,0,15.228-6.821,15.228-15.228c0-8.406-6.821-15.201-15.228-15.201C229.945,3.316,223.142,10.112,223.142,18.518 M41.118,221.97V63.235c0-10.051-8.156-18.189-18.198-18.189c-10.052,0-18.217,8.139-18.217,18.189v140.535c0,10.061,8.165,18.199,18.217,18.199l0,0H41.118z M50.963,221.97h7.605c10.051,0,18.207-9.689,18.207-19.732h-0.018c0,9.742,1.98,19.732,10.586,19.732h-0.026V63.235c0-10.051-8.147-18.189-18.19-18.189s-18.182,8.139-18.182,18.189V221.97h0.009 M158.734,45.036V203.78c0,10.051,8.166,18.189,18.208,18.189c10.025,0,18.182-8.139,18.182-18.189V63.244c0-10.06-8.156-18.208-18.182-18.208l0,0H158.734z M141.268,45.036c-10.033,0-18.182,9.698-18.182,19.741h0.018c0-9.741-1.998-19.731-10.594-19.741h0.018V203.78c0,10.051,8.147,18.189,18.207,18.189c10.034,0,18.182-8.139,18.182-18.189V45.036h-0.025H141.268z"/>
<path fill="#00A4DD" d="M369.344,10.095c7.002,0,13.092-3.971,16.133-10.095h2.031v203.771c0,10.034-8.139,18.191-18.172,18.191c-10.129,0-18.251-8.157-18.251-18.191V0h2.059C356.176,6.124,362.333,10.095,369.344,10.095 M449.056,221.97V63.235c0-10.051-8.165-18.199-18.208-18.199c-10.033,0-18.182,8.148-18.182,18.199v140.535c0,10.052,8.148,18.199,18.182,18.199l0,0H449.056z M466.514,221.97c10.034,0,18.19-9.689,18.19-19.74h-0.017c0,9.74,1.998,19.732,10.602,19.74h-0.025V63.235c0-10.051-8.148-18.199-18.199-18.199c-10.043,0-18.189,8.148-18.189,18.199V221.97h0.033H466.514z M285.688,203.736c0,10.068,8.165,18.233,18.251,18.233c10.06,0,18.233-8.165,18.233-18.233s-8.174-18.241-18.233-18.241C293.853,185.495,285.688,193.668,285.688,203.736"/>
</svg>
