<?xml version="1.0" encoding="UTF-8" standalone="no"?>
<svg
   xmlns:dc="http://purl.org/dc/elements/1.1/"
   xmlns:cc="http://creativecommons.org/ns#"
   xmlns:rdf="http://www.w3.org/1999/02/22-rdf-syntax-ns#"
   xmlns:svg="http://www.w3.org/2000/svg"
   xmlns="http://www.w3.org/2000/svg"
   xmlns:sodipodi="http://sodipodi.sourceforge.net/DTD/sodipodi-0.dtd"
   xmlns:inkscape="http://www.inkscape.org/namespaces/inkscape"
   version="1.1"
   id="svg2"
   xml:space="preserve"
   width="92.718262"
   height="90.256798"
   viewBox="0 0 92.718262 90.256798"
   sodipodi:docname="lcsb.svg"
   inkscape:version="1.0.2 (e86c870879, 2021-01-15)"><metadata
     id="metadata8"><rdf:RDF><cc:Work
         rdf:about=""><dc:format>image/svg+xml</dc:format><dc:type
           rdf:resource="http://purl.org/dc/dcmitype/StillImage" /><dc:title></dc:title></cc:Work></rdf:RDF></metadata><defs
     id="defs6" /><sodipodi:namedview
     pagecolor="#ffffff"
     bordercolor="#666666"
     borderopacity="1"
     objecttolerance="10"
     gridtolerance="10"
     guidetolerance="10"
     inkscape:pageopacity="0"
     inkscape:pageshadow="2"
     inkscape:window-width="718"
     inkscape:window-height="480"
     id="namedview4"
     showgrid="false"
     inkscape:zoom="3.1081068"
     inkscape:cx="38.679389"
     inkscape:cy="40.718064"
     inkscape:window-x="0"
     inkscape:window-y="33"
     inkscape:window-maximized="0"
     inkscape:current-layer="g10" /><g
     id="g10"
     inkscape:groupmode="layer"
     inkscape:label="lcsb"
     transform="matrix(1.3333333,0,0,1.3333333,0,2.5897532e-6)"><path
       d="m 16.023,37.285 c 1.985,0 3.594,1.61 3.594,3.594 0,1.984 -1.609,3.594 -3.594,3.594 -1.988,0 -3.593,-1.61 -3.593,-3.594 0,-1.984 1.605,-3.594 3.593,-3.594"
       style="fill:#00a4e1;fill-opacity:1;fill-rule:nonzero;stroke:none"
       id="path14" /><path
       d="m 16.094,50.574 c 1.636,0 2.965,1.328 2.965,2.965 0.003,1.637 -1.325,2.965 -2.965,2.965 -1.637,0 -2.965,-1.324 -2.965,-2.965 0,-1.637 1.328,-2.965 2.965,-2.965"
       style="fill:#00a4e1;fill-opacity:1;fill-rule:nonzero;stroke:none"
       id="path16" /><path
       d="m 16.051,62.785 c 1.34,0 2.429,1.09 2.429,2.434 0,1.343 -1.085,2.433 -2.429,2.433 -1.344,0 -2.434,-1.09 -2.434,-2.433 0,-1.344 1.09,-2.434 2.434,-2.434"
       style="fill:#00a4e1;fill-opacity:1;fill-rule:nonzero;stroke:none"
       id="path18" /><path
       d="m 3.594,37.285 c 1.984,0 3.594,1.61 3.594,3.594 0,1.984 -1.61,3.594 -3.594,3.594 C 1.609,44.473 0,42.863 0,40.879 0,38.895 1.609,37.285 3.594,37.285"
       style="fill:#00a4e1;fill-opacity:1;fill-rule:nonzero;stroke:none"
       id="path20" /><path
       d="m 3.621,50.574 c 1.637,0 2.965,1.328 2.965,2.965 0,1.637 -1.328,2.965 -2.965,2.965 -1.641,0 -2.965,-1.324 -2.965,-2.965 0,-1.637 1.324,-2.965 2.965,-2.965"
       style="fill:#00a4e1;fill-opacity:1;fill-rule:nonzero;stroke:none"
       id="path22" /><path
       d="m 3.621,62.785 c 1.344,0 2.434,1.09 2.434,2.434 0,1.343 -1.09,2.433 -2.434,2.433 -1.344,0 -2.433,-1.09 -2.433,-2.433 0,-1.344 1.089,-2.434 2.433,-2.434"
       style="fill:#00a4e1;fill-opacity:1;fill-rule:nonzero;stroke:none"
       id="path24" /><path
       d="m 28.523,50.574 c 1.637,0 2.965,1.328 2.965,2.965 0,1.637 -1.328,2.965 -2.965,2.965 -1.64,0 -2.968,-1.324 -2.968,-2.965 0,-1.637 1.328,-2.965 2.968,-2.965"
       style="fill:#00a4e1;fill-opacity:1;fill-rule:nonzero;stroke:none"
       id="path26" /><path
       d="m 28.578,62.785 c 1.344,0 2.434,1.09 2.434,2.434 0,1.343 -1.09,2.433 -2.434,2.433 -1.344,0 -2.433,-1.09 -2.433,-2.433 0,-1.344 1.089,-2.434 2.433,-2.434"
       style="fill:#00a4e1;fill-opacity:1;fill-rule:nonzero;stroke:none"
       id="path28" /><path
       d="m 41.004,50.574 c 1.641,0 2.969,1.328 2.969,2.965 0,1.637 -1.328,2.965 -2.969,2.965 -1.637,0 -2.965,-1.324 -2.965,-2.965 0,-1.637 1.328,-2.965 2.965,-2.965"
       style="fill:#00a4e1;fill-opacity:1;fill-rule:nonzero;stroke:none"
       id="path30" /><path
       d="m 40.988,62.785 c 1.344,0 2.434,1.09 2.434,2.434 0,1.343 -1.09,2.433 -2.434,2.433 -1.343,0 -2.433,-1.09 -2.433,-2.433 0,-1.344 1.09,-2.434 2.433,-2.434"
       style="fill:#00a4e1;fill-opacity:1;fill-rule:nonzero;stroke:none"
       id="path32" /><path
       d="m 53.449,50.574 c 1.641,0 2.969,1.328 2.969,2.965 0,1.637 -1.328,2.965 -2.969,2.965 -1.637,0 -2.965,-1.324 -2.965,-2.965 0,-1.637 1.328,-2.965 2.965,-2.965"
       style="fill:#00a4e1;fill-opacity:1;fill-rule:nonzero;stroke:none"
       id="path34" /><path
       d="m 53.414,62.785 c 1.344,0 2.434,1.09 2.434,2.434 0,1.343 -1.09,2.433 -2.434,2.433 -1.344,0 -2.43,-1.09 -2.43,-2.433 0,-1.344 1.086,-2.434 2.43,-2.434"
       style="fill:#00a4e1;fill-opacity:1;fill-rule:nonzero;stroke:none"
       id="path36" /><path
       d="m 65.906,50.574 c 1.641,0 2.969,1.328 2.969,2.965 0,1.637 -1.328,2.965 -2.969,2.965 -1.636,0 -2.965,-1.324 -2.965,-2.965 0,-1.637 1.329,-2.965 2.965,-2.965"
       style="fill:#00a4e1;fill-opacity:1;fill-rule:nonzero;stroke:none"
       id="path38" /><path
       d="m 65.926,62.828 c 1.344,0 2.433,1.086 2.433,2.43 0,1.344 -1.089,2.433 -2.433,2.433 -1.344,0 -2.434,-1.089 -2.434,-2.433 0,-1.344 1.09,-2.43 2.434,-2.43"
       style="fill:#00a4e1;fill-opacity:1;fill-rule:nonzero;stroke:none"
       id="path40" /><path
       d="m 53.426,30.402 c -1.985,0 -3.594,-1.609 -3.594,-3.593 0,-1.985 1.609,-3.594 3.594,-3.594 1.984,0 3.594,1.609 3.594,3.594 0,1.984 -1.61,3.593 -3.594,3.593"
       style="fill:#e41f18;fill-opacity:1;fill-rule:nonzero;stroke:none"
       id="path42" /><path
       d="m 53.355,17.117 c -1.64,0 -2.968,-1.328 -2.968,-2.969 0,-1.636 1.328,-2.964 2.968,-2.964 1.637,0 2.965,1.328 2.965,2.964 0,1.641 -1.328,2.969 -2.965,2.969"
       style="fill:#e41f18;fill-opacity:1;fill-rule:nonzero;stroke:none"
       id="path44" /><path
       d="m 53.398,4.902 c -1.343,0 -2.433,-1.09 -2.433,-2.433 0,-1.344 1.086,-2.434 2.433,-2.434 1.34,0 2.43,1.09 2.43,2.434 0,1.343 -1.086,2.433 -2.43,2.433"
       style="fill:#e41f18;fill-opacity:1;fill-rule:nonzero;stroke:none"
       id="path46" /><path
       d="m 65.848,30.402 c -1.985,0 -3.598,-1.609 -3.598,-3.593 0,-1.985 1.609,-3.594 3.594,-3.594 1.988,0 3.597,1.609 3.597,3.594 0,1.984 -1.609,3.593 -3.593,3.593"
       style="fill:#e41f18;fill-opacity:1;fill-rule:nonzero;stroke:none"
       id="path48" /><path
       d="m 65.82,17.117 c -1.64,0 -2.968,-1.328 -2.968,-2.969 0,-1.636 1.328,-2.964 2.968,-2.964 1.637,0 2.965,1.328 2.965,2.964 0,1.641 -1.328,2.969 -2.965,2.969"
       style="fill:#e41f18;fill-opacity:1;fill-rule:nonzero;stroke:none"
       id="path50" /><path
       d="m 65.824,4.902 c -1.344,0 -2.433,-1.09 -2.433,-2.433 0,-1.344 1.089,-2.434 2.433,-2.434 1.344,0 2.434,1.09 2.434,2.434 0,1.343 -1.09,2.433 -2.434,2.433"
       style="fill:#e41f18;fill-opacity:1;fill-rule:nonzero;stroke:none"
       id="path52" /><path
       d="m 40.883,30.402 c -1.985,0 -3.594,-1.609 -3.594,-3.593 0,-1.985 1.609,-3.594 3.594,-3.594 1.988,0 3.594,1.609 3.594,3.594 0,1.984 -1.606,3.593 -3.594,3.593"
       style="fill:#e41f18;fill-opacity:1;fill-rule:nonzero;stroke:none"
       id="path54" /><path
       d="m 40.926,17.117 c -1.637,0 -2.965,-1.328 -2.965,-2.969 0,-1.636 1.328,-2.964 2.965,-2.964 1.64,0 2.969,1.328 2.969,2.964 0,1.641 -1.329,2.969 -2.969,2.969"
       style="fill:#e41f18;fill-opacity:1;fill-rule:nonzero;stroke:none"
       id="path56" /><path
       d="m 40.867,4.902 c -1.344,0 -2.433,-1.09 -2.433,-2.433 0,-1.344 1.089,-2.434 2.433,-2.434 1.344,0 2.434,1.09 2.434,2.434 0,1.343 -1.09,2.433 -2.434,2.433"
       style="fill:#e41f18;fill-opacity:1;fill-rule:nonzero;stroke:none"
       id="path58" /><path
       d="m 28.508,30.402 c -1.985,0 -3.594,-1.609 -3.594,-3.593 0,-1.985 1.609,-3.594 3.594,-3.594 1.984,0 3.594,1.609 3.594,3.594 0,1.984 -1.61,3.593 -3.594,3.593"
       style="fill:#e41f18;fill-opacity:1;fill-rule:nonzero;stroke:none"
       id="path60" /><path
       d="m 28.445,17.117 c -1.636,0 -2.965,-1.328 -2.968,-2.969 0,-1.636 1.328,-2.964 2.968,-2.964 1.637,0 2.965,1.328 2.965,2.964 0,1.641 -1.328,2.969 -2.965,2.969"
       style="fill:#e41f18;fill-opacity:1;fill-rule:nonzero;stroke:none"
       id="path62" /><path
       d="m 28.457,4.902 c -1.344,0 -2.434,-1.09 -2.434,-2.433 0,-1.344 1.09,-2.434 2.434,-2.434 1.344,0 2.434,1.09 2.434,2.434 0,1.343 -1.09,2.433 -2.434,2.433"
       style="fill:#e41f18;fill-opacity:1;fill-rule:nonzero;stroke:none"
       id="path64" /><path
       d="m 16.082,30.406 c -1.984,0 -3.594,-1.609 -3.594,-3.597 0,-1.985 1.61,-3.594 3.594,-3.594 1.984,0 3.594,1.609 3.594,3.594 0,1.984 -1.61,3.597 -3.594,3.597"
       style="fill:#e41f18;fill-opacity:1;fill-rule:nonzero;stroke:none"
       id="path66" /><path
       d="m 15.988,17.117 c -1.636,0 -2.965,-1.328 -2.965,-2.969 0,-1.636 1.329,-2.964 2.965,-2.964 1.641,0 2.969,1.328 2.969,2.964 0,1.641 -1.328,2.969 -2.969,2.969"
       style="fill:#e41f18;fill-opacity:1;fill-rule:nonzero;stroke:none"
       id="path68" /><path
       d="m 16.031,4.902 c -1.343,0 -2.433,-1.09 -2.433,-2.433 0,-1.344 1.09,-2.434 2.433,-2.434 1.344,0 2.43,1.09 2.43,2.434 0.004,1.343 -1.086,2.433 -2.43,2.433"
       style="fill:#e41f18;fill-opacity:1;fill-rule:nonzero;stroke:none"
       id="path70" /><path
       d="m 3.605,23.137 c 1.985,0 3.594,1.609 3.594,3.593 0,1.985 -1.609,3.594 -3.594,3.594 -1.984,0 -3.593,-1.609 -3.593,-3.594 0,-1.984 1.609,-3.593 3.593,-3.593"
       style="fill:#e41f18;fill-opacity:1;fill-rule:nonzero;stroke:none"
       id="path72" /><path
       d="m 3.543,17.117 c -1.637,0 -2.965,-1.328 -2.969,-2.969 0,-1.636 1.328,-2.964 2.969,-2.964 1.637,0 2.965,1.328 2.965,2.964 0,1.641 -1.328,2.969 -2.965,2.969"
       style="fill:#e41f18;fill-opacity:1;fill-rule:nonzero;stroke:none"
       id="path74" /><path
       d="M 3.52,4.863 C 2.176,4.863 1.086,3.777 1.086,2.434 1.086,1.09 2.176,0 3.52,0 c 1.343,0 2.433,1.09 2.433,2.434 0,1.343 -1.09,2.429 -2.433,2.429"
       style="fill:#e41f18;fill-opacity:1;fill-rule:nonzero;stroke:none"
       id="path76" /><path
       d="m 42.785,35.508 c -2.867,0 -5.027,1.984 -5.027,4.883 0,1.488 0.5,2.742 1.383,3.613 0.886,0.871 2.148,1.351 3.632,1.351 0.543,0 1.407,-0.031 2.153,-0.343 l 0.179,-0.078 -0.117,-1.895 -0.386,0.231 c -0.364,0.218 -1.219,0.398 -1.817,0.398 -1.73,0 -3.109,-1.258 -3.109,-3.238 0,-1.895 1.234,-3.235 3.172,-3.235 0.609,0 1.191,0.157 1.714,0.461 L 44.941,37.879 45.094,36 44.918,35.918 c -0.691,-0.301 -1.41,-0.41 -2.133,-0.41 z m 11.27,0 c -0.86,0 -1.641,0.222 -2.223,0.683 -0.578,0.465 -0.937,1.172 -0.937,2.039 0,0.762 0.277,1.336 0.679,1.754 0.406,0.414 0.918,0.68 1.406,0.914 0.493,0.235 0.961,0.438 1.282,0.68 0.32,0.246 0.492,0.484 0.492,0.899 0,0.437 -0.192,0.703 -0.484,0.902 -0.29,0.195 -0.684,0.289 -1,0.289 -0.586,0 -1.344,-0.242 -1.762,-0.414 l -0.344,-0.141 -0.187,1.782 0.211,0.07 c 0.601,0.195 1.246,0.39 1.925,0.39 0.942,0 1.821,-0.195 2.481,-0.671 0.66,-0.481 1.078,-1.254 1.078,-2.286 0,-0.8 -0.274,-1.41 -0.676,-1.859 -0.398,-0.449 -0.914,-0.746 -1.406,-0.992 -0.492,-0.25 -0.969,-0.453 -1.293,-0.676 -0.324,-0.226 -0.485,-0.43 -0.488,-0.758 0,-0.383 0.144,-0.57 0.382,-0.711 0.239,-0.144 0.586,-0.207 0.914,-0.207 0.637,0 0.938,0.098 1.586,0.352 l 0.325,0.129 0.265,-1.758 -0.219,-0.074 c -0.656,-0.231 -1.386,-0.336 -2.007,-0.336 z m -27.617,0.156 v 9.535 h 5.597 v -1.687 h -3.758 v -7.848 z m 36.73,0 v 9.535 h 2.672 c 0.937,0 1.836,-0.113 2.531,-0.508 0.699,-0.398 1.168,-1.121 1.168,-2.164 0,-0.691 -0.246,-1.285 -0.668,-1.711 -0.277,-0.281 -0.711,-0.359 -1.113,-0.48 0.347,-0.145 0.73,-0.258 0.972,-0.516 0.372,-0.398 0.575,-0.945 0.575,-1.617 0,-0.902 -0.375,-1.582 -1.004,-1.988 -0.625,-0.403 -1.461,-0.551 -2.422,-0.551 z m 1.836,1.609 h 1.078 c 0.34,0 0.707,0.067 0.961,0.227 0.258,0.156 0.422,0.379 0.422,0.832 0,0.59 -0.18,0.809 -0.524,0.969 -0.339,0.156 -0.882,0.195 -1.5,0.195 h -0.437 z m 0,3.836 h 0.562 c 0.539,0 1.086,0.055 1.461,0.239 0.371,0.187 0.594,0.453 0.594,1.066 0,0.524 -0.183,0.758 -0.519,0.934 -0.332,0.175 -0.848,0.242 -1.407,0.242 h -0.691 z"
       style="fill:#5f5e5e;fill-opacity:1;fill-rule:nonzero;stroke:none"
       id="path78" /></g></svg>
